<?xml version="1.0" encoding="utf-8"?>
<svg xmlns="http://www.w3.org/2000/svg" xmlns:xlink="http://www.w3.org/1999/xlink" width="600" height="400" viewBox="0 0 2400 1600">
<defs>
  <clipPath id="clip540">
    <rect x="0" y="0" width="2400" height="1600"/>
  </clipPath>
</defs>
<path clip-path="url(#clip540)" d="M0 1600 L2400 1600 L2400 0 L0 0  Z" fill="#ffffff" fill-rule="evenodd" fill-opacity="1"/>
<defs>
  <clipPath id="clip541">
    <rect x="480" y="0" width="1681" height="1600"/>
  </clipPath>
</defs>
<path clip-path="url(#clip540)" d="M193.936 1486.45 L2352.76 1486.45 L2352.76 47.2441 L193.936 47.2441  Z" fill="#ffffff" fill-rule="evenodd" fill-opacity="1"/>
<defs>
  <clipPath id="clip542">
    <rect x="193" y="47" width="2160" height="1440"/>
  </clipPath>
</defs>
<polyline clip-path="url(#clip542)" style="stroke:#000000; stroke-linecap:round; stroke-linejoin:round; stroke-width:2; stroke-opacity:0.1; fill:none" points="458.697,1486.45 458.697,47.2441 "/>
<polyline clip-path="url(#clip542)" style="stroke:#000000; stroke-linecap:round; stroke-linejoin:round; stroke-width:2; stroke-opacity:0.1; fill:none" points="866.021,1486.45 866.021,47.2441 "/>
<polyline clip-path="url(#clip542)" style="stroke:#000000; stroke-linecap:round; stroke-linejoin:round; stroke-width:2; stroke-opacity:0.1; fill:none" points="1273.35,1486.45 1273.35,47.2441 "/>
<polyline clip-path="url(#clip542)" style="stroke:#000000; stroke-linecap:round; stroke-linejoin:round; stroke-width:2; stroke-opacity:0.1; fill:none" points="1680.67,1486.45 1680.67,47.2441 "/>
<polyline clip-path="url(#clip542)" style="stroke:#000000; stroke-linecap:round; stroke-linejoin:round; stroke-width:2; stroke-opacity:0.1; fill:none" points="2087.99,1486.45 2087.99,47.2441 "/>
<polyline clip-path="url(#clip540)" style="stroke:#000000; stroke-linecap:round; stroke-linejoin:round; stroke-width:4; stroke-opacity:1; fill:none" points="193.936,1486.45 2352.76,1486.45 "/>
<polyline clip-path="url(#clip540)" style="stroke:#000000; stroke-linecap:round; stroke-linejoin:round; stroke-width:4; stroke-opacity:1; fill:none" points="458.697,1486.45 458.697,1467.55 "/>
<polyline clip-path="url(#clip540)" style="stroke:#000000; stroke-linecap:round; stroke-linejoin:round; stroke-width:4; stroke-opacity:1; fill:none" points="866.021,1486.45 866.021,1467.55 "/>
<polyline clip-path="url(#clip540)" style="stroke:#000000; stroke-linecap:round; stroke-linejoin:round; stroke-width:4; stroke-opacity:1; fill:none" points="1273.35,1486.45 1273.35,1467.55 "/>
<polyline clip-path="url(#clip540)" style="stroke:#000000; stroke-linecap:round; stroke-linejoin:round; stroke-width:4; stroke-opacity:1; fill:none" points="1680.67,1486.45 1680.67,1467.55 "/>
<polyline clip-path="url(#clip540)" style="stroke:#000000; stroke-linecap:round; stroke-linejoin:round; stroke-width:4; stroke-opacity:1; fill:none" points="2087.99,1486.45 2087.99,1467.55 "/>
<path clip-path="url(#clip540)" d="M427.598 1532.02 L457.273 1532.02 L457.273 1535.95 L427.598 1535.95 L427.598 1532.02 Z" fill="#000000" fill-rule="nonzero" fill-opacity="1" /><path clip-path="url(#clip540)" d="M480.213 1518.36 L468.408 1536.81 L480.213 1536.81 L480.213 1518.36 M478.986 1514.29 L484.866 1514.29 L484.866 1536.81 L489.796 1536.81 L489.796 1540.7 L484.866 1540.7 L484.866 1548.85 L480.213 1548.85 L480.213 1540.7 L464.611 1540.7 L464.611 1536.19 L478.986 1514.29 Z" fill="#000000" fill-rule="nonzero" fill-opacity="1" /><path clip-path="url(#clip540)" d="M835.964 1532.02 L865.639 1532.02 L865.639 1535.95 L835.964 1535.95 L835.964 1532.02 Z" fill="#000000" fill-rule="nonzero" fill-opacity="1" /><path clip-path="url(#clip540)" d="M879.76 1544.91 L896.079 1544.91 L896.079 1548.85 L874.135 1548.85 L874.135 1544.91 Q876.797 1542.16 881.38 1537.53 Q885.987 1532.88 887.167 1531.53 Q889.413 1529.01 890.292 1527.27 Q891.195 1525.51 891.195 1523.82 Q891.195 1521.07 889.25 1519.33 Q887.329 1517.6 884.227 1517.6 Q882.028 1517.6 879.575 1518.36 Q877.144 1519.13 874.366 1520.68 L874.366 1515.95 Q877.19 1514.82 879.644 1514.24 Q882.098 1513.66 884.135 1513.66 Q889.505 1513.66 892.7 1516.35 Q895.894 1519.03 895.894 1523.52 Q895.894 1525.65 895.084 1527.57 Q894.297 1529.47 892.19 1532.07 Q891.612 1532.74 888.51 1535.95 Q885.408 1539.15 879.76 1544.91 Z" fill="#000000" fill-rule="nonzero" fill-opacity="1" /><path clip-path="url(#clip540)" d="M1273.35 1517.37 Q1269.73 1517.37 1267.91 1520.93 Q1266.1 1524.47 1266.1 1531.6 Q1266.1 1538.71 1267.91 1542.27 Q1269.73 1545.82 1273.35 1545.82 Q1276.98 1545.82 1278.79 1542.27 Q1280.61 1538.71 1280.61 1531.6 Q1280.61 1524.47 1278.79 1520.93 Q1276.98 1517.37 1273.35 1517.37 M1273.35 1513.66 Q1279.16 1513.66 1282.21 1518.27 Q1285.29 1522.85 1285.29 1531.6 Q1285.29 1540.33 1282.21 1544.94 Q1279.16 1549.52 1273.35 1549.52 Q1267.54 1549.52 1264.46 1544.94 Q1261.4 1540.33 1261.4 1531.6 Q1261.4 1522.85 1264.46 1518.27 Q1267.54 1513.66 1273.35 1513.66 Z" fill="#000000" fill-rule="nonzero" fill-opacity="1" /><path clip-path="url(#clip540)" d="M1675.32 1544.91 L1691.64 1544.91 L1691.64 1548.85 L1669.7 1548.85 L1669.7 1544.91 Q1672.36 1542.16 1676.94 1537.53 Q1681.55 1532.88 1682.73 1531.53 Q1684.98 1529.01 1685.86 1527.27 Q1686.76 1525.51 1686.76 1523.82 Q1686.76 1521.07 1684.81 1519.33 Q1682.89 1517.6 1679.79 1517.6 Q1677.59 1517.6 1675.14 1518.36 Q1672.71 1519.13 1669.93 1520.68 L1669.93 1515.95 Q1672.75 1514.82 1675.21 1514.24 Q1677.66 1513.66 1679.7 1513.66 Q1685.07 1513.66 1688.26 1516.35 Q1691.46 1519.03 1691.46 1523.52 Q1691.46 1525.65 1690.65 1527.57 Q1689.86 1529.47 1687.75 1532.07 Q1687.18 1532.74 1684.07 1535.95 Q1680.97 1539.15 1675.32 1544.91 Z" fill="#000000" fill-rule="nonzero" fill-opacity="1" /><path clip-path="url(#clip540)" d="M2091 1518.36 L2079.2 1536.81 L2091 1536.81 L2091 1518.36 M2089.78 1514.29 L2095.66 1514.29 L2095.66 1536.81 L2100.59 1536.81 L2100.59 1540.7 L2095.66 1540.7 L2095.66 1548.85 L2091 1548.85 L2091 1540.7 L2075.4 1540.7 L2075.4 1536.19 L2089.78 1514.29 Z" fill="#000000" fill-rule="nonzero" fill-opacity="1" /><polyline clip-path="url(#clip542)" style="stroke:#000000; stroke-linecap:round; stroke-linejoin:round; stroke-width:2; stroke-opacity:0.1; fill:none" points="193.936,1445.72 2352.76,1445.72 "/>
<polyline clip-path="url(#clip542)" style="stroke:#000000; stroke-linecap:round; stroke-linejoin:round; stroke-width:2; stroke-opacity:0.1; fill:none" points="193.936,1106.24 2352.76,1106.24 "/>
<polyline clip-path="url(#clip542)" style="stroke:#000000; stroke-linecap:round; stroke-linejoin:round; stroke-width:2; stroke-opacity:0.1; fill:none" points="193.936,766.766 2352.76,766.766 "/>
<polyline clip-path="url(#clip542)" style="stroke:#000000; stroke-linecap:round; stroke-linejoin:round; stroke-width:2; stroke-opacity:0.1; fill:none" points="193.936,427.291 2352.76,427.291 "/>
<polyline clip-path="url(#clip542)" style="stroke:#000000; stroke-linecap:round; stroke-linejoin:round; stroke-width:2; stroke-opacity:0.1; fill:none" points="193.936,87.816 2352.76,87.816 "/>
<polyline clip-path="url(#clip540)" style="stroke:#000000; stroke-linecap:round; stroke-linejoin:round; stroke-width:4; stroke-opacity:1; fill:none" points="193.936,1486.45 193.936,47.2441 "/>
<polyline clip-path="url(#clip540)" style="stroke:#000000; stroke-linecap:round; stroke-linejoin:round; stroke-width:4; stroke-opacity:1; fill:none" points="193.936,1445.72 212.834,1445.72 "/>
<polyline clip-path="url(#clip540)" style="stroke:#000000; stroke-linecap:round; stroke-linejoin:round; stroke-width:4; stroke-opacity:1; fill:none" points="193.936,1106.24 212.834,1106.24 "/>
<polyline clip-path="url(#clip540)" style="stroke:#000000; stroke-linecap:round; stroke-linejoin:round; stroke-width:4; stroke-opacity:1; fill:none" points="193.936,766.766 212.834,766.766 "/>
<polyline clip-path="url(#clip540)" style="stroke:#000000; stroke-linecap:round; stroke-linejoin:round; stroke-width:4; stroke-opacity:1; fill:none" points="193.936,427.291 212.834,427.291 "/>
<polyline clip-path="url(#clip540)" style="stroke:#000000; stroke-linecap:round; stroke-linejoin:round; stroke-width:4; stroke-opacity:1; fill:none" points="193.936,87.816 212.834,87.816 "/>
<path clip-path="url(#clip540)" d="M50.9921 1446.17 L80.6679 1446.17 L80.6679 1450.1 L50.9921 1450.1 L50.9921 1446.17 Z" fill="#000000" fill-rule="nonzero" fill-opacity="1" /><path clip-path="url(#clip540)" d="M91.5706 1459.06 L99.2095 1459.06 L99.2095 1432.69 L90.8993 1434.36 L90.8993 1430.1 L99.1632 1428.44 L103.839 1428.44 L103.839 1459.06 L111.478 1459.06 L111.478 1463 L91.5706 1463 L91.5706 1459.06 Z" fill="#000000" fill-rule="nonzero" fill-opacity="1" /><path clip-path="url(#clip540)" d="M120.922 1457.12 L125.807 1457.12 L125.807 1463 L120.922 1463 L120.922 1457.12 Z" fill="#000000" fill-rule="nonzero" fill-opacity="1" /><path clip-path="url(#clip540)" d="M145.992 1431.51 Q142.381 1431.51 140.552 1435.08 Q138.746 1438.62 138.746 1445.75 Q138.746 1452.86 140.552 1456.42 Q142.381 1459.96 145.992 1459.96 Q149.626 1459.96 151.431 1456.42 Q153.26 1452.86 153.26 1445.75 Q153.26 1438.62 151.431 1435.08 Q149.626 1431.51 145.992 1431.51 M145.992 1427.81 Q151.802 1427.81 154.857 1432.42 Q157.936 1437 157.936 1445.75 Q157.936 1454.48 154.857 1459.08 Q151.802 1463.67 145.992 1463.67 Q140.181 1463.67 137.103 1459.08 Q134.047 1454.48 134.047 1445.75 Q134.047 1437 137.103 1432.42 Q140.181 1427.81 145.992 1427.81 Z" fill="#000000" fill-rule="nonzero" fill-opacity="1" /><path clip-path="url(#clip540)" d="M51.9875 1106.69 L81.6633 1106.69 L81.6633 1110.63 L51.9875 1110.63 L51.9875 1106.69 Z" fill="#000000" fill-rule="nonzero" fill-opacity="1" /><path clip-path="url(#clip540)" d="M101.756 1092.04 Q98.1447 1092.04 96.316 1095.6 Q94.5104 1099.15 94.5104 1106.28 Q94.5104 1113.38 96.316 1116.95 Q98.1447 1120.49 101.756 1120.49 Q105.39 1120.49 107.196 1116.95 Q109.024 1113.38 109.024 1106.28 Q109.024 1099.15 107.196 1095.6 Q105.39 1092.04 101.756 1092.04 M101.756 1088.34 Q107.566 1088.34 110.621 1092.94 Q113.7 1097.53 113.7 1106.28 Q113.7 1115 110.621 1119.61 Q107.566 1124.19 101.756 1124.19 Q95.9456 1124.19 92.8669 1119.61 Q89.8114 1115 89.8114 1106.28 Q89.8114 1097.53 92.8669 1092.94 Q95.9456 1088.34 101.756 1088.34 Z" fill="#000000" fill-rule="nonzero" fill-opacity="1" /><path clip-path="url(#clip540)" d="M121.918 1117.64 L126.802 1117.64 L126.802 1123.52 L121.918 1123.52 L121.918 1117.64 Z" fill="#000000" fill-rule="nonzero" fill-opacity="1" /><path clip-path="url(#clip540)" d="M137.033 1088.96 L155.39 1088.96 L155.39 1092.9 L141.316 1092.9 L141.316 1101.37 Q142.334 1101.02 143.353 1100.86 Q144.371 1100.67 145.39 1100.67 Q151.177 1100.67 154.556 1103.84 Q157.936 1107.02 157.936 1112.43 Q157.936 1118.01 154.464 1121.11 Q150.992 1124.19 144.672 1124.19 Q142.496 1124.19 140.228 1123.82 Q137.982 1123.45 135.575 1122.71 L135.575 1118.01 Q137.658 1119.15 139.881 1119.7 Q142.103 1120.26 144.58 1120.26 Q148.584 1120.26 150.922 1118.15 Q153.26 1116.04 153.26 1112.43 Q153.26 1108.82 150.922 1106.72 Q148.584 1104.61 144.58 1104.61 Q142.705 1104.61 140.83 1105.03 Q138.978 1105.44 137.033 1106.32 L137.033 1088.96 Z" fill="#000000" fill-rule="nonzero" fill-opacity="1" /><path clip-path="url(#clip540)" d="M100.76 752.565 Q97.1493 752.565 95.3206 756.129 Q93.515 759.671 93.515 766.801 Q93.515 773.907 95.3206 777.472 Q97.1493 781.013 100.76 781.013 Q104.395 781.013 106.2 777.472 Q108.029 773.907 108.029 766.801 Q108.029 759.671 106.2 756.129 Q104.395 752.565 100.76 752.565 M100.76 748.861 Q106.571 748.861 109.626 753.467 Q112.705 758.051 112.705 766.801 Q112.705 775.527 109.626 780.134 Q106.571 784.717 100.76 784.717 Q94.9502 784.717 91.8715 780.134 Q88.816 775.527 88.816 766.801 Q88.816 758.051 91.8715 753.467 Q94.9502 748.861 100.76 748.861 Z" fill="#000000" fill-rule="nonzero" fill-opacity="1" /><path clip-path="url(#clip540)" d="M120.922 778.166 L125.807 778.166 L125.807 784.046 L120.922 784.046 L120.922 778.166 Z" fill="#000000" fill-rule="nonzero" fill-opacity="1" /><path clip-path="url(#clip540)" d="M145.992 752.565 Q142.381 752.565 140.552 756.129 Q138.746 759.671 138.746 766.801 Q138.746 773.907 140.552 777.472 Q142.381 781.013 145.992 781.013 Q149.626 781.013 151.431 777.472 Q153.26 773.907 153.26 766.801 Q153.26 759.671 151.431 756.129 Q149.626 752.565 145.992 752.565 M145.992 748.861 Q151.802 748.861 154.857 753.467 Q157.936 758.051 157.936 766.801 Q157.936 775.527 154.857 780.134 Q151.802 784.717 145.992 784.717 Q140.181 784.717 137.103 780.134 Q134.047 775.527 134.047 766.801 Q134.047 758.051 137.103 753.467 Q140.181 748.861 145.992 748.861 Z" fill="#000000" fill-rule="nonzero" fill-opacity="1" /><path clip-path="url(#clip540)" d="M101.756 413.09 Q98.1447 413.09 96.316 416.654 Q94.5104 420.196 94.5104 427.326 Q94.5104 434.432 96.316 437.997 Q98.1447 441.539 101.756 441.539 Q105.39 441.539 107.196 437.997 Q109.024 434.432 109.024 427.326 Q109.024 420.196 107.196 416.654 Q105.39 413.09 101.756 413.09 M101.756 409.386 Q107.566 409.386 110.621 413.992 Q113.7 418.576 113.7 427.326 Q113.7 436.052 110.621 440.659 Q107.566 445.242 101.756 445.242 Q95.9456 445.242 92.8669 440.659 Q89.8114 436.052 89.8114 427.326 Q89.8114 418.576 92.8669 413.992 Q95.9456 409.386 101.756 409.386 Z" fill="#000000" fill-rule="nonzero" fill-opacity="1" /><path clip-path="url(#clip540)" d="M121.918 438.691 L126.802 438.691 L126.802 444.571 L121.918 444.571 L121.918 438.691 Z" fill="#000000" fill-rule="nonzero" fill-opacity="1" /><path clip-path="url(#clip540)" d="M137.033 410.011 L155.39 410.011 L155.39 413.946 L141.316 413.946 L141.316 422.418 Q142.334 422.071 143.353 421.909 Q144.371 421.724 145.39 421.724 Q151.177 421.724 154.556 424.895 Q157.936 428.066 157.936 433.483 Q157.936 439.062 154.464 442.164 Q150.992 445.242 144.672 445.242 Q142.496 445.242 140.228 444.872 Q137.982 444.501 135.575 443.761 L135.575 439.062 Q137.658 440.196 139.881 440.751 Q142.103 441.307 144.58 441.307 Q148.584 441.307 150.922 439.201 Q153.26 437.094 153.26 433.483 Q153.26 429.872 150.922 427.765 Q148.584 425.659 144.58 425.659 Q142.705 425.659 140.83 426.076 Q138.978 426.492 137.033 427.372 L137.033 410.011 Z" fill="#000000" fill-rule="nonzero" fill-opacity="1" /><path clip-path="url(#clip540)" d="M91.5706 101.161 L99.2095 101.161 L99.2095 74.7952 L90.8993 76.4619 L90.8993 72.2026 L99.1632 70.536 L103.839 70.536 L103.839 101.161 L111.478 101.161 L111.478 105.096 L91.5706 105.096 L91.5706 101.161 Z" fill="#000000" fill-rule="nonzero" fill-opacity="1" /><path clip-path="url(#clip540)" d="M120.922 99.2164 L125.807 99.2164 L125.807 105.096 L120.922 105.096 L120.922 99.2164 Z" fill="#000000" fill-rule="nonzero" fill-opacity="1" /><path clip-path="url(#clip540)" d="M145.992 73.6147 Q142.381 73.6147 140.552 77.1795 Q138.746 80.7211 138.746 87.8507 Q138.746 94.9571 140.552 98.5219 Q142.381 102.064 145.992 102.064 Q149.626 102.064 151.431 98.5219 Q153.26 94.9571 153.26 87.8507 Q153.26 80.7211 151.431 77.1795 Q149.626 73.6147 145.992 73.6147 M145.992 69.911 Q151.802 69.911 154.857 74.5174 Q157.936 79.1007 157.936 87.8507 Q157.936 96.5775 154.857 101.184 Q151.802 105.767 145.992 105.767 Q140.181 105.767 137.103 101.184 Q134.047 96.5775 134.047 87.8507 Q134.047 79.1007 137.103 74.5174 Q140.181 69.911 145.992 69.911 Z" fill="#000000" fill-rule="nonzero" fill-opacity="1" /><polyline clip-path="url(#clip542)" style="stroke:#009af9; stroke-linecap:round; stroke-linejoin:round; stroke-width:4; stroke-opacity:1; fill:none" points="255.035,574.173 258.35,584.795 261.664,595.466 264.979,606.181 268.294,616.939 298.945,717.919 329.596,820.003 360.247,920.883 390.898,1018.28 409.318,1074.21 427.737,1127.63 446.157,1178.1 464.577,1225.21 480.151,1262.12 495.725,1296.15 511.299,1327.08 526.872,1354.73 535.331,1368.32 543.79,1380.88 552.249,1392.37 560.707,1402.78 569.166,1412.1 577.625,1420.3 586.084,1427.38 594.542,1433.32 602.341,1437.77 610.139,1441.25 617.937,1443.73 625.735,1445.22 633.533,1445.72 641.332,1445.22 649.13,1443.72 656.928,1441.24 665.289,1437.47 673.649,1432.58 682.01,1426.56 690.37,1419.44 698.731,1411.21 707.091,1401.9 715.452,1391.52 723.812,1380.08 733.499,1365.54 743.185,1349.65 752.872,1332.43 762.558,1313.94 772.245,1294.21 781.931,1273.29 791.617,1251.22 801.304,1228.06 818.52,1184.35 835.737,1137.66 852.953,1088.31 870.17,1036.68 900.364,941.69 930.558,842.866 963.478,733.294 996.398,624.595 1012.96,571.149 1029.51,518.995 1046.07,468.478 1062.63,419.931 1080.94,368.936 1099.24,321.154 1108.4,298.589 1117.55,276.969 1126.7,256.339 1135.86,236.74 1144.57,219.085 1153.28,202.431 1161.98,186.809 1170.69,172.248 1179.4,158.773 1188.11,146.411 1196.82,135.182 1205.53,125.108 1214.59,115.878 1223.64,107.935 1232.7,101.294 1241.75,95.9683 1250.81,91.9687 1259.86,89.3029 1268.92,87.9763 1277.98,87.9914 1285.6,89.0443 1293.22,91.0466 1300.84,93.9953 1308.47,97.8865 1323.71,108.473 1338.96,122.746 1348.27,133.239 1357.57,145.054 1366.88,158.167 1376.19,172.55 1385.49,188.174 1394.8,205.007 1404.11,223.012 1413.41,242.152 1430.46,280.031 1447.51,321.319 1464.57,365.728 1481.62,412.947 1497.36,458.766 1513.11,506.426 1528.86,555.641 1544.61,606.119 1576.51,711.003 1608.42,817.253 1626.29,876.417 1644.17,934.736 1662.05,991.762 1679.93,1047.06 1696.13,1095.31 1712.33,1141.48 1728.53,1185.29 1744.73,1226.44 1754,1248.71 1763.28,1269.98 1772.55,1290.21 1781.83,1309.35 1791.1,1327.37 1800.37,1344.22 1809.65,1359.88 1818.92,1374.3 1827.51,1386.54 1836.1,1397.67 1844.68,1407.69 1853.27,1416.56 1861.86,1424.28 1870.44,1430.83 1879.03,1436.2 1887.62,1440.38 1896.08,1443.33 1904.55,1445.11 1913.01,1445.72 1921.48,1445.15 1929.95,1443.41 1938.41,1440.51 1946.88,1436.44 1955.34,1431.21 1963.56,1425.04 1971.78,1417.79 1980,1409.49 1988.22,1400.13 1996.44,1389.75 2004.66,1378.35 2012.88,1365.96 2021.1,1352.59 2029.53,1337.89 2037.95,1322.22 2046.38,1305.59 2054.8,1288.05 2071.66,1250.31 2088.51,1209.26 2106.97,1160.82 2125.44,1109.15 2134.67,1082.23 2143.9,1054.66 2153.13,1026.51 2162.36,997.814 2189.18,911.979 2216,823.628 2242.83,734.293 2269.65,645.52 2275.15,627.518 2280.65,609.618 2286.15,591.832 2291.66,574.173 "/>
<path clip-path="url(#clip540)" d="M2012.48 198.898 L2280.8 198.898 L2280.8 95.2176 L2012.48 95.2176  Z" fill="#ffffff" fill-rule="evenodd" fill-opacity="1"/>
<polyline clip-path="url(#clip540)" style="stroke:#000000; stroke-linecap:round; stroke-linejoin:round; stroke-width:4; stroke-opacity:1; fill:none" points="2012.48,198.898 2280.8,198.898 2280.8,95.2176 2012.48,95.2176 2012.48,198.898 "/>
<polyline clip-path="url(#clip540)" style="stroke:#009af9; stroke-linecap:round; stroke-linejoin:round; stroke-width:4; stroke-opacity:1; fill:none" points="2036.47,147.058 2180.39,147.058 "/>
<path clip-path="url(#clip540)" d="M2218.22 166.745 Q2216.42 171.375 2214.7 172.787 Q2212.99 174.199 2210.12 174.199 L2206.72 174.199 L2206.72 170.634 L2209.22 170.634 Q2210.98 170.634 2211.95 169.8 Q2212.92 168.967 2214.1 165.865 L2214.86 163.921 L2204.38 138.412 L2208.89 138.412 L2216.99 158.689 L2225.1 138.412 L2229.61 138.412 L2218.22 166.745 Z" fill="#000000" fill-rule="nonzero" fill-opacity="1" /><path clip-path="url(#clip540)" d="M2236.9 160.402 L2244.54 160.402 L2244.54 134.037 L2236.23 135.703 L2236.23 131.444 L2244.49 129.778 L2249.17 129.778 L2249.17 160.402 L2256.81 160.402 L2256.81 164.338 L2236.9 164.338 L2236.9 160.402 Z" fill="#000000" fill-rule="nonzero" fill-opacity="1" /></svg>
