<?xml version="1.0" encoding="utf-8"?>
<svg xmlns="http://www.w3.org/2000/svg" xmlns:xlink="http://www.w3.org/1999/xlink" width="600" height="400" viewBox="0 0 2400 1600">
<defs>
  <clipPath id="clip730">
    <rect x="0" y="0" width="2400" height="1600"/>
  </clipPath>
</defs>
<path clip-path="url(#clip730)" d="
M0 1600 L2400 1600 L2400 0 L0 0  Z
  " fill="#ffffff" fill-rule="evenodd" fill-opacity="1"/>
<defs>
  <clipPath id="clip731">
    <rect x="480" y="0" width="1681" height="1600"/>
  </clipPath>
</defs>
<path clip-path="url(#clip730)" d="
M186.76 1486.45 L2352.76 1486.45 L2352.76 47.2441 L186.76 47.2441  Z
  " fill="#ffffff" fill-rule="evenodd" fill-opacity="1"/>
<defs>
  <clipPath id="clip732">
    <rect x="186" y="47" width="2167" height="1440"/>
  </clipPath>
</defs>
<polyline clip-path="url(#clip732)" style="stroke:#000000; stroke-linecap:butt; stroke-linejoin:round; stroke-width:2; stroke-opacity:0.1; fill:none" points="
  417.89,1486.45 417.89,47.2441 
  "/>
<polyline clip-path="url(#clip732)" style="stroke:#000000; stroke-linecap:butt; stroke-linejoin:round; stroke-width:2; stroke-opacity:0.1; fill:none" points="
  797.736,1486.45 797.736,47.2441 
  "/>
<polyline clip-path="url(#clip732)" style="stroke:#000000; stroke-linecap:butt; stroke-linejoin:round; stroke-width:2; stroke-opacity:0.1; fill:none" points="
  1177.58,1486.45 1177.58,47.2441 
  "/>
<polyline clip-path="url(#clip732)" style="stroke:#000000; stroke-linecap:butt; stroke-linejoin:round; stroke-width:2; stroke-opacity:0.1; fill:none" points="
  1557.43,1486.45 1557.43,47.2441 
  "/>
<polyline clip-path="url(#clip732)" style="stroke:#000000; stroke-linecap:butt; stroke-linejoin:round; stroke-width:2; stroke-opacity:0.1; fill:none" points="
  1937.27,1486.45 1937.27,47.2441 
  "/>
<polyline clip-path="url(#clip732)" style="stroke:#000000; stroke-linecap:butt; stroke-linejoin:round; stroke-width:2; stroke-opacity:0.1; fill:none" points="
  2317.12,1486.45 2317.12,47.2441 
  "/>
<polyline clip-path="url(#clip730)" style="stroke:#000000; stroke-linecap:butt; stroke-linejoin:round; stroke-width:4; stroke-opacity:1; fill:none" points="
  186.76,1486.45 2352.76,1486.45 
  "/>
<polyline clip-path="url(#clip730)" style="stroke:#000000; stroke-linecap:butt; stroke-linejoin:round; stroke-width:4; stroke-opacity:1; fill:none" points="
  417.89,1486.45 417.89,1467.55 
  "/>
<polyline clip-path="url(#clip730)" style="stroke:#000000; stroke-linecap:butt; stroke-linejoin:round; stroke-width:4; stroke-opacity:1; fill:none" points="
  797.736,1486.45 797.736,1467.55 
  "/>
<polyline clip-path="url(#clip730)" style="stroke:#000000; stroke-linecap:butt; stroke-linejoin:round; stroke-width:4; stroke-opacity:1; fill:none" points="
  1177.58,1486.45 1177.58,1467.55 
  "/>
<polyline clip-path="url(#clip730)" style="stroke:#000000; stroke-linecap:butt; stroke-linejoin:round; stroke-width:4; stroke-opacity:1; fill:none" points="
  1557.43,1486.45 1557.43,1467.55 
  "/>
<polyline clip-path="url(#clip730)" style="stroke:#000000; stroke-linecap:butt; stroke-linejoin:round; stroke-width:4; stroke-opacity:1; fill:none" points="
  1937.27,1486.45 1937.27,1467.55 
  "/>
<polyline clip-path="url(#clip730)" style="stroke:#000000; stroke-linecap:butt; stroke-linejoin:round; stroke-width:4; stroke-opacity:1; fill:none" points="
  2317.12,1486.45 2317.12,1467.55 
  "/>
<path clip-path="url(#clip730)" d="M417.89 1517.37 Q414.279 1517.37 412.451 1520.93 Q410.645 1524.47 410.645 1531.6 Q410.645 1538.71 412.451 1542.27 Q414.279 1545.82 417.89 1545.82 Q421.525 1545.82 423.33 1542.27 Q425.159 1538.71 425.159 1531.6 Q425.159 1524.47 423.33 1520.93 Q421.525 1517.37 417.89 1517.37 M417.89 1513.66 Q423.701 1513.66 426.756 1518.27 Q429.835 1522.85 429.835 1531.6 Q429.835 1540.33 426.756 1544.94 Q423.701 1549.52 417.89 1549.52 Q412.08 1549.52 409.002 1544.94 Q405.946 1540.33 405.946 1531.6 Q405.946 1522.85 409.002 1518.27 Q412.08 1513.66 417.89 1513.66 Z" fill="#000000" fill-rule="evenodd" fill-opacity="1" /><path clip-path="url(#clip730)" d="M788.014 1514.29 L806.37 1514.29 L806.37 1518.22 L792.296 1518.22 L792.296 1526.7 Q793.315 1526.35 794.333 1526.19 Q795.352 1526 796.37 1526 Q802.157 1526 805.537 1529.17 Q808.917 1532.34 808.917 1537.76 Q808.917 1543.34 805.444 1546.44 Q801.972 1549.52 795.653 1549.52 Q793.477 1549.52 791.208 1549.15 Q788.963 1548.78 786.556 1548.04 L786.556 1543.34 Q788.639 1544.47 790.861 1545.03 Q793.083 1545.58 795.56 1545.58 Q799.565 1545.58 801.903 1543.48 Q804.241 1541.37 804.241 1537.76 Q804.241 1534.15 801.903 1532.04 Q799.565 1529.94 795.56 1529.94 Q793.685 1529.94 791.81 1530.35 Q789.958 1530.77 788.014 1531.65 L788.014 1514.29 Z" fill="#000000" fill-rule="evenodd" fill-opacity="1" /><path clip-path="url(#clip730)" d="M1152.27 1544.91 L1159.91 1544.91 L1159.91 1518.55 L1151.6 1520.21 L1151.6 1515.95 L1159.86 1514.29 L1164.54 1514.29 L1164.54 1544.91 L1172.18 1544.91 L1172.18 1548.85 L1152.27 1548.85 L1152.27 1544.91 Z" fill="#000000" fill-rule="evenodd" fill-opacity="1" /><path clip-path="url(#clip730)" d="M1191.62 1517.37 Q1188.01 1517.37 1186.18 1520.93 Q1184.38 1524.47 1184.38 1531.6 Q1184.38 1538.71 1186.18 1542.27 Q1188.01 1545.82 1191.62 1545.82 Q1195.26 1545.82 1197.06 1542.27 Q1198.89 1538.71 1198.89 1531.6 Q1198.89 1524.47 1197.06 1520.93 Q1195.26 1517.37 1191.62 1517.37 M1191.62 1513.66 Q1197.43 1513.66 1200.49 1518.27 Q1203.57 1522.85 1203.57 1531.6 Q1203.57 1540.33 1200.49 1544.94 Q1197.43 1549.52 1191.62 1549.52 Q1185.81 1549.52 1182.73 1544.94 Q1179.68 1540.33 1179.68 1531.6 Q1179.68 1522.85 1182.73 1518.27 Q1185.81 1513.66 1191.62 1513.66 Z" fill="#000000" fill-rule="evenodd" fill-opacity="1" /><path clip-path="url(#clip730)" d="M1532.61 1544.91 L1540.25 1544.91 L1540.25 1518.55 L1531.94 1520.21 L1531.94 1515.95 L1540.21 1514.29 L1544.88 1514.29 L1544.88 1544.91 L1552.52 1544.91 L1552.52 1548.85 L1532.61 1548.85 L1532.61 1544.91 Z" fill="#000000" fill-rule="evenodd" fill-opacity="1" /><path clip-path="url(#clip730)" d="M1562.01 1514.29 L1580.37 1514.29 L1580.37 1518.22 L1566.29 1518.22 L1566.29 1526.7 Q1567.31 1526.35 1568.33 1526.19 Q1569.35 1526 1570.37 1526 Q1576.15 1526 1579.53 1529.17 Q1582.91 1532.34 1582.91 1537.76 Q1582.91 1543.34 1579.44 1546.44 Q1575.97 1549.52 1569.65 1549.52 Q1567.47 1549.52 1565.21 1549.15 Q1562.96 1548.78 1560.55 1548.04 L1560.55 1543.34 Q1562.64 1544.47 1564.86 1545.03 Q1567.08 1545.58 1569.56 1545.58 Q1573.56 1545.58 1575.9 1543.48 Q1578.24 1541.37 1578.24 1537.76 Q1578.24 1534.15 1575.9 1532.04 Q1573.56 1529.94 1569.56 1529.94 Q1567.68 1529.94 1565.81 1530.35 Q1563.96 1530.77 1562.01 1531.65 L1562.01 1514.29 Z" fill="#000000" fill-rule="evenodd" fill-opacity="1" /><path clip-path="url(#clip730)" d="M1916.05 1544.91 L1932.37 1544.91 L1932.37 1548.85 L1910.42 1548.85 L1910.42 1544.91 Q1913.08 1542.16 1917.67 1537.53 Q1922.27 1532.88 1923.45 1531.53 Q1925.7 1529.01 1926.58 1527.27 Q1927.48 1525.51 1927.48 1523.82 Q1927.48 1521.07 1925.54 1519.33 Q1923.62 1517.6 1920.51 1517.6 Q1918.31 1517.6 1915.86 1518.36 Q1913.43 1519.13 1910.65 1520.68 L1910.65 1515.95 Q1913.48 1514.82 1915.93 1514.24 Q1918.38 1513.66 1920.42 1513.66 Q1925.79 1513.66 1928.99 1516.35 Q1932.18 1519.03 1932.18 1523.52 Q1932.18 1525.65 1931.37 1527.57 Q1930.58 1529.47 1928.48 1532.07 Q1927.9 1532.74 1924.8 1535.95 Q1921.69 1539.15 1916.05 1544.91 Z" fill="#000000" fill-rule="evenodd" fill-opacity="1" /><path clip-path="url(#clip730)" d="M1952.18 1517.37 Q1948.57 1517.37 1946.74 1520.93 Q1944.94 1524.47 1944.94 1531.6 Q1944.94 1538.71 1946.74 1542.27 Q1948.57 1545.82 1952.18 1545.82 Q1955.81 1545.82 1957.62 1542.27 Q1959.45 1538.71 1959.45 1531.6 Q1959.45 1524.47 1957.62 1520.93 Q1955.81 1517.37 1952.18 1517.37 M1952.18 1513.66 Q1957.99 1513.66 1961.05 1518.27 Q1964.12 1522.85 1964.12 1531.6 Q1964.12 1540.33 1961.05 1544.94 Q1957.99 1549.52 1952.18 1549.52 Q1946.37 1549.52 1943.29 1544.94 Q1940.24 1540.33 1940.24 1531.6 Q1940.24 1522.85 1943.29 1518.27 Q1946.37 1513.66 1952.18 1513.66 Z" fill="#000000" fill-rule="evenodd" fill-opacity="1" /><path clip-path="url(#clip730)" d="M2296.39 1544.91 L2312.71 1544.91 L2312.71 1548.85 L2290.76 1548.85 L2290.76 1544.91 Q2293.43 1542.16 2298.01 1537.53 Q2302.62 1532.88 2303.8 1531.53 Q2306.04 1529.01 2306.92 1527.27 Q2307.82 1525.51 2307.82 1523.82 Q2307.82 1521.07 2305.88 1519.33 Q2303.96 1517.6 2300.86 1517.6 Q2298.66 1517.6 2296.2 1518.36 Q2293.77 1519.13 2291 1520.68 L2291 1515.95 Q2293.82 1514.82 2296.27 1514.24 Q2298.73 1513.66 2300.76 1513.66 Q2306.13 1513.66 2309.33 1516.35 Q2312.52 1519.03 2312.52 1523.52 Q2312.52 1525.65 2311.71 1527.57 Q2310.93 1529.47 2308.82 1532.07 Q2308.24 1532.74 2305.14 1535.95 Q2302.04 1539.15 2296.39 1544.91 Z" fill="#000000" fill-rule="evenodd" fill-opacity="1" /><path clip-path="url(#clip730)" d="M2322.57 1514.29 L2340.93 1514.29 L2340.93 1518.22 L2326.85 1518.22 L2326.85 1526.7 Q2327.87 1526.35 2328.89 1526.19 Q2329.91 1526 2330.93 1526 Q2336.71 1526 2340.09 1529.17 Q2343.47 1532.34 2343.47 1537.76 Q2343.47 1543.34 2340 1546.44 Q2336.53 1549.52 2330.21 1549.52 Q2328.03 1549.52 2325.76 1549.15 Q2323.52 1548.78 2321.11 1548.04 L2321.11 1543.34 Q2323.2 1544.47 2325.42 1545.03 Q2327.64 1545.58 2330.12 1545.58 Q2334.12 1545.58 2336.46 1543.48 Q2338.8 1541.37 2338.8 1537.76 Q2338.8 1534.15 2336.46 1532.04 Q2334.12 1529.94 2330.12 1529.94 Q2328.24 1529.94 2326.37 1530.35 Q2324.51 1530.77 2322.57 1531.65 L2322.57 1514.29 Z" fill="#000000" fill-rule="evenodd" fill-opacity="1" /><polyline clip-path="url(#clip732)" style="stroke:#000000; stroke-linecap:butt; stroke-linejoin:round; stroke-width:2; stroke-opacity:0.1; fill:none" points="
  186.76,1445.72 2352.76,1445.72 
  "/>
<polyline clip-path="url(#clip732)" style="stroke:#000000; stroke-linecap:butt; stroke-linejoin:round; stroke-width:2; stroke-opacity:0.1; fill:none" points="
  186.76,1241.49 2352.76,1241.49 
  "/>
<polyline clip-path="url(#clip732)" style="stroke:#000000; stroke-linecap:butt; stroke-linejoin:round; stroke-width:2; stroke-opacity:0.1; fill:none" points="
  186.76,1037.26 2352.76,1037.26 
  "/>
<polyline clip-path="url(#clip732)" style="stroke:#000000; stroke-linecap:butt; stroke-linejoin:round; stroke-width:2; stroke-opacity:0.1; fill:none" points="
  186.76,833.035 2352.76,833.035 
  "/>
<polyline clip-path="url(#clip732)" style="stroke:#000000; stroke-linecap:butt; stroke-linejoin:round; stroke-width:2; stroke-opacity:0.1; fill:none" points="
  186.76,628.807 2352.76,628.807 
  "/>
<polyline clip-path="url(#clip732)" style="stroke:#000000; stroke-linecap:butt; stroke-linejoin:round; stroke-width:2; stroke-opacity:0.1; fill:none" points="
  186.76,424.579 2352.76,424.579 
  "/>
<polyline clip-path="url(#clip732)" style="stroke:#000000; stroke-linecap:butt; stroke-linejoin:round; stroke-width:2; stroke-opacity:0.1; fill:none" points="
  186.76,220.351 2352.76,220.351 
  "/>
<polyline clip-path="url(#clip730)" style="stroke:#000000; stroke-linecap:butt; stroke-linejoin:round; stroke-width:4; stroke-opacity:1; fill:none" points="
  186.76,1486.45 186.76,47.2441 
  "/>
<polyline clip-path="url(#clip730)" style="stroke:#000000; stroke-linecap:butt; stroke-linejoin:round; stroke-width:4; stroke-opacity:1; fill:none" points="
  186.76,1445.72 205.658,1445.72 
  "/>
<polyline clip-path="url(#clip730)" style="stroke:#000000; stroke-linecap:butt; stroke-linejoin:round; stroke-width:4; stroke-opacity:1; fill:none" points="
  186.76,1241.49 205.658,1241.49 
  "/>
<polyline clip-path="url(#clip730)" style="stroke:#000000; stroke-linecap:butt; stroke-linejoin:round; stroke-width:4; stroke-opacity:1; fill:none" points="
  186.76,1037.26 205.658,1037.26 
  "/>
<polyline clip-path="url(#clip730)" style="stroke:#000000; stroke-linecap:butt; stroke-linejoin:round; stroke-width:4; stroke-opacity:1; fill:none" points="
  186.76,833.035 205.658,833.035 
  "/>
<polyline clip-path="url(#clip730)" style="stroke:#000000; stroke-linecap:butt; stroke-linejoin:round; stroke-width:4; stroke-opacity:1; fill:none" points="
  186.76,628.807 205.658,628.807 
  "/>
<polyline clip-path="url(#clip730)" style="stroke:#000000; stroke-linecap:butt; stroke-linejoin:round; stroke-width:4; stroke-opacity:1; fill:none" points="
  186.76,424.579 205.658,424.579 
  "/>
<polyline clip-path="url(#clip730)" style="stroke:#000000; stroke-linecap:butt; stroke-linejoin:round; stroke-width:4; stroke-opacity:1; fill:none" points="
  186.76,220.351 205.658,220.351 
  "/>
<path clip-path="url(#clip730)" d="M63.4226 1431.52 Q59.8115 1431.52 57.9828 1435.08 Q56.1773 1438.62 56.1773 1445.75 Q56.1773 1452.86 57.9828 1456.42 Q59.8115 1459.97 63.4226 1459.97 Q67.0569 1459.97 68.8624 1456.42 Q70.6911 1452.86 70.6911 1445.75 Q70.6911 1438.62 68.8624 1435.08 Q67.0569 1431.52 63.4226 1431.52 M63.4226 1427.81 Q69.2328 1427.81 72.2883 1432.42 Q75.367 1437 75.367 1445.75 Q75.367 1454.48 72.2883 1459.09 Q69.2328 1463.67 63.4226 1463.67 Q57.6125 1463.67 54.5338 1459.09 Q51.4782 1454.48 51.4782 1445.75 Q51.4782 1437 54.5338 1432.42 Q57.6125 1427.81 63.4226 1427.81 Z" fill="#000000" fill-rule="evenodd" fill-opacity="1" /><path clip-path="url(#clip730)" d="M83.5845 1457.12 L88.4688 1457.12 L88.4688 1463 L83.5845 1463 L83.5845 1457.12 Z" fill="#000000" fill-rule="evenodd" fill-opacity="1" /><path clip-path="url(#clip730)" d="M108.654 1431.52 Q105.043 1431.52 103.214 1435.08 Q101.409 1438.62 101.409 1445.75 Q101.409 1452.86 103.214 1456.42 Q105.043 1459.97 108.654 1459.97 Q112.288 1459.97 114.094 1456.42 Q115.922 1452.86 115.922 1445.75 Q115.922 1438.62 114.094 1435.08 Q112.288 1431.52 108.654 1431.52 M108.654 1427.81 Q114.464 1427.81 117.52 1432.42 Q120.598 1437 120.598 1445.75 Q120.598 1454.48 117.52 1459.09 Q114.464 1463.67 108.654 1463.67 Q102.844 1463.67 99.765 1459.09 Q96.7095 1454.48 96.7095 1445.75 Q96.7095 1437 99.765 1432.42 Q102.844 1427.81 108.654 1427.81 Z" fill="#000000" fill-rule="evenodd" fill-opacity="1" /><path clip-path="url(#clip730)" d="M138.816 1431.52 Q135.205 1431.52 133.376 1435.08 Q131.57 1438.62 131.57 1445.75 Q131.57 1452.86 133.376 1456.42 Q135.205 1459.97 138.816 1459.97 Q142.45 1459.97 144.256 1456.42 Q146.084 1452.86 146.084 1445.75 Q146.084 1438.62 144.256 1435.08 Q142.45 1431.52 138.816 1431.52 M138.816 1427.81 Q144.626 1427.81 147.681 1432.42 Q150.76 1437 150.76 1445.75 Q150.76 1454.48 147.681 1459.09 Q144.626 1463.67 138.816 1463.67 Q133.006 1463.67 129.927 1459.09 Q126.871 1454.48 126.871 1445.75 Q126.871 1437 129.927 1432.42 Q133.006 1427.81 138.816 1427.81 Z" fill="#000000" fill-rule="evenodd" fill-opacity="1" /><path clip-path="url(#clip730)" d="M65.0198 1227.29 Q61.4087 1227.29 59.58 1230.85 Q57.7745 1234.4 57.7745 1241.53 Q57.7745 1248.63 59.58 1252.2 Q61.4087 1255.74 65.0198 1255.74 Q68.6541 1255.74 70.4596 1252.2 Q72.2883 1248.63 72.2883 1241.53 Q72.2883 1234.4 70.4596 1230.85 Q68.6541 1227.29 65.0198 1227.29 M65.0198 1223.59 Q70.83 1223.59 73.8855 1228.19 Q76.9642 1232.78 76.9642 1241.53 Q76.9642 1250.25 73.8855 1254.86 Q70.83 1259.44 65.0198 1259.44 Q59.2097 1259.44 56.131 1254.86 Q53.0754 1250.25 53.0754 1241.53 Q53.0754 1232.78 56.131 1228.19 Q59.2097 1223.59 65.0198 1223.59 Z" fill="#000000" fill-rule="evenodd" fill-opacity="1" /><path clip-path="url(#clip730)" d="M85.1818 1252.89 L90.066 1252.89 L90.066 1258.77 L85.1818 1258.77 L85.1818 1252.89 Z" fill="#000000" fill-rule="evenodd" fill-opacity="1" /><path clip-path="url(#clip730)" d="M110.251 1227.29 Q106.64 1227.29 104.811 1230.85 Q103.006 1234.4 103.006 1241.53 Q103.006 1248.63 104.811 1252.2 Q106.64 1255.74 110.251 1255.74 Q113.885 1255.74 115.691 1252.2 Q117.52 1248.63 117.52 1241.53 Q117.52 1234.4 115.691 1230.85 Q113.885 1227.29 110.251 1227.29 M110.251 1223.59 Q116.061 1223.59 119.117 1228.19 Q122.195 1232.78 122.195 1241.53 Q122.195 1250.25 119.117 1254.86 Q116.061 1259.44 110.251 1259.44 Q104.441 1259.44 101.362 1254.86 Q98.3067 1250.25 98.3067 1241.53 Q98.3067 1232.78 101.362 1228.19 Q104.441 1223.59 110.251 1223.59 Z" fill="#000000" fill-rule="evenodd" fill-opacity="1" /><path clip-path="url(#clip730)" d="M134.441 1254.84 L150.76 1254.84 L150.76 1258.77 L128.816 1258.77 L128.816 1254.84 Q131.478 1252.08 136.061 1247.45 Q140.668 1242.8 141.848 1241.46 Q144.093 1238.93 144.973 1237.2 Q145.876 1235.44 145.876 1233.75 Q145.876 1230.99 143.931 1229.26 Q142.01 1227.52 138.908 1227.52 Q136.709 1227.52 134.256 1228.28 Q131.825 1229.05 129.047 1230.6 L129.047 1225.88 Q131.871 1224.74 134.325 1224.16 Q136.779 1223.59 138.816 1223.59 Q144.186 1223.59 147.38 1226.27 Q150.575 1228.96 150.575 1233.45 Q150.575 1235.58 149.765 1237.5 Q148.978 1239.4 146.871 1241.99 Q146.293 1242.66 143.191 1245.88 Q140.089 1249.07 134.441 1254.84 Z" fill="#000000" fill-rule="evenodd" fill-opacity="1" /><path clip-path="url(#clip730)" d="M62.9365 1023.06 Q59.3254 1023.06 57.4967 1026.63 Q55.6912 1030.17 55.6912 1037.3 Q55.6912 1044.4 57.4967 1047.97 Q59.3254 1051.51 62.9365 1051.51 Q66.5707 1051.51 68.3763 1047.97 Q70.205 1044.4 70.205 1037.3 Q70.205 1030.17 68.3763 1026.63 Q66.5707 1023.06 62.9365 1023.06 M62.9365 1019.36 Q68.7467 1019.36 71.8022 1023.96 Q74.8809 1028.55 74.8809 1037.3 Q74.8809 1046.02 71.8022 1050.63 Q68.7467 1055.21 62.9365 1055.21 Q57.1264 1055.21 54.0477 1050.63 Q50.9921 1046.02 50.9921 1037.3 Q50.9921 1028.55 54.0477 1023.96 Q57.1264 1019.36 62.9365 1019.36 Z" fill="#000000" fill-rule="evenodd" fill-opacity="1" /><path clip-path="url(#clip730)" d="M83.0984 1048.66 L87.9827 1048.66 L87.9827 1054.54 L83.0984 1054.54 L83.0984 1048.66 Z" fill="#000000" fill-rule="evenodd" fill-opacity="1" /><path clip-path="url(#clip730)" d="M108.168 1023.06 Q104.557 1023.06 102.728 1026.63 Q100.922 1030.17 100.922 1037.3 Q100.922 1044.4 102.728 1047.97 Q104.557 1051.51 108.168 1051.51 Q111.802 1051.51 113.608 1047.97 Q115.436 1044.4 115.436 1037.3 Q115.436 1030.17 113.608 1026.63 Q111.802 1023.06 108.168 1023.06 M108.168 1019.36 Q113.978 1019.36 117.033 1023.96 Q120.112 1028.55 120.112 1037.3 Q120.112 1046.02 117.033 1050.63 Q113.978 1055.21 108.168 1055.21 Q102.358 1055.21 99.2789 1050.63 Q96.2234 1046.02 96.2234 1037.3 Q96.2234 1028.55 99.2789 1023.96 Q102.358 1019.36 108.168 1019.36 Z" fill="#000000" fill-rule="evenodd" fill-opacity="1" /><path clip-path="url(#clip730)" d="M141.177 1024.06 L129.371 1042.51 L141.177 1042.51 L141.177 1024.06 M139.95 1019.98 L145.83 1019.98 L145.83 1042.51 L150.76 1042.51 L150.76 1046.39 L145.83 1046.39 L145.83 1054.54 L141.177 1054.54 L141.177 1046.39 L125.575 1046.39 L125.575 1041.88 L139.95 1019.98 Z" fill="#000000" fill-rule="evenodd" fill-opacity="1" /><path clip-path="url(#clip730)" d="M63.2606 818.833 Q59.6495 818.833 57.8208 822.398 Q56.0152 825.94 56.0152 833.07 Q56.0152 840.176 57.8208 843.741 Q59.6495 847.282 63.2606 847.282 Q66.8948 847.282 68.7004 843.741 Q70.5291 840.176 70.5291 833.07 Q70.5291 825.94 68.7004 822.398 Q66.8948 818.833 63.2606 818.833 M63.2606 815.13 Q69.0707 815.13 72.1263 819.736 Q75.205 824.32 75.205 833.07 Q75.205 841.796 72.1263 846.403 Q69.0707 850.986 63.2606 850.986 Q57.4504 850.986 54.3717 846.403 Q51.3162 841.796 51.3162 833.07 Q51.3162 824.32 54.3717 819.736 Q57.4504 815.13 63.2606 815.13 Z" fill="#000000" fill-rule="evenodd" fill-opacity="1" /><path clip-path="url(#clip730)" d="M83.4225 844.435 L88.3067 844.435 L88.3067 850.315 L83.4225 850.315 L83.4225 844.435 Z" fill="#000000" fill-rule="evenodd" fill-opacity="1" /><path clip-path="url(#clip730)" d="M108.492 818.833 Q104.881 818.833 103.052 822.398 Q101.246 825.94 101.246 833.07 Q101.246 840.176 103.052 843.741 Q104.881 847.282 108.492 847.282 Q112.126 847.282 113.932 843.741 Q115.76 840.176 115.76 833.07 Q115.76 825.94 113.932 822.398 Q112.126 818.833 108.492 818.833 M108.492 815.13 Q114.302 815.13 117.358 819.736 Q120.436 824.32 120.436 833.07 Q120.436 841.796 117.358 846.403 Q114.302 850.986 108.492 850.986 Q102.682 850.986 99.603 846.403 Q96.5474 841.796 96.5474 833.07 Q96.5474 824.32 99.603 819.736 Q102.682 815.13 108.492 815.13 Z" fill="#000000" fill-rule="evenodd" fill-opacity="1" /><path clip-path="url(#clip730)" d="M139.232 831.171 Q136.084 831.171 134.232 833.324 Q132.404 835.477 132.404 839.227 Q132.404 842.954 134.232 845.13 Q136.084 847.282 139.232 847.282 Q142.381 847.282 144.209 845.13 Q146.061 842.954 146.061 839.227 Q146.061 835.477 144.209 833.324 Q142.381 831.171 139.232 831.171 M148.515 816.519 L148.515 820.778 Q146.756 819.945 144.95 819.505 Q143.168 819.065 141.408 819.065 Q136.779 819.065 134.325 822.19 Q131.894 825.315 131.547 831.634 Q132.913 829.62 134.973 828.556 Q137.033 827.468 139.51 827.468 Q144.718 827.468 147.728 830.639 Q150.76 833.787 150.76 839.227 Q150.76 844.551 147.612 847.769 Q144.464 850.986 139.232 850.986 Q133.237 850.986 130.066 846.403 Q126.894 841.796 126.894 833.07 Q126.894 824.875 130.783 820.014 Q134.672 815.13 141.223 815.13 Q142.982 815.13 144.765 815.477 Q146.57 815.824 148.515 816.519 Z" fill="#000000" fill-rule="evenodd" fill-opacity="1" /><path clip-path="url(#clip730)" d="M63.5152 614.605 Q59.9041 614.605 58.0754 618.17 Q56.2699 621.712 56.2699 628.841 Q56.2699 635.948 58.0754 639.513 Q59.9041 643.054 63.5152 643.054 Q67.1494 643.054 68.955 639.513 Q70.7837 635.948 70.7837 628.841 Q70.7837 621.712 68.955 618.17 Q67.1494 614.605 63.5152 614.605 M63.5152 610.902 Q69.3254 610.902 72.3809 615.508 Q75.4596 620.092 75.4596 628.841 Q75.4596 637.568 72.3809 642.175 Q69.3254 646.758 63.5152 646.758 Q57.7051 646.758 54.6264 642.175 Q51.5708 637.568 51.5708 628.841 Q51.5708 620.092 54.6264 615.508 Q57.7051 610.902 63.5152 610.902 Z" fill="#000000" fill-rule="evenodd" fill-opacity="1" /><path clip-path="url(#clip730)" d="M83.6771 640.207 L88.5614 640.207 L88.5614 646.087 L83.6771 646.087 L83.6771 640.207 Z" fill="#000000" fill-rule="evenodd" fill-opacity="1" /><path clip-path="url(#clip730)" d="M108.746 614.605 Q105.135 614.605 103.307 618.17 Q101.501 621.712 101.501 628.841 Q101.501 635.948 103.307 639.513 Q105.135 643.054 108.746 643.054 Q112.381 643.054 114.186 639.513 Q116.015 635.948 116.015 628.841 Q116.015 621.712 114.186 618.17 Q112.381 614.605 108.746 614.605 M108.746 610.902 Q114.557 610.902 117.612 615.508 Q120.691 620.092 120.691 628.841 Q120.691 637.568 117.612 642.175 Q114.557 646.758 108.746 646.758 Q102.936 646.758 99.8576 642.175 Q96.8021 637.568 96.8021 628.841 Q96.8021 620.092 99.8576 615.508 Q102.936 610.902 108.746 610.902 Z" fill="#000000" fill-rule="evenodd" fill-opacity="1" /><path clip-path="url(#clip730)" d="M138.908 629.675 Q135.575 629.675 133.654 631.457 Q131.756 633.24 131.756 636.365 Q131.756 639.49 133.654 641.272 Q135.575 643.054 138.908 643.054 Q142.242 643.054 144.163 641.272 Q146.084 639.466 146.084 636.365 Q146.084 633.24 144.163 631.457 Q142.265 629.675 138.908 629.675 M134.232 627.684 Q131.223 626.943 129.533 624.883 Q127.867 622.823 127.867 619.86 Q127.867 615.717 130.807 613.309 Q133.769 610.902 138.908 610.902 Q144.07 610.902 147.01 613.309 Q149.95 615.717 149.95 619.86 Q149.95 622.823 148.26 624.883 Q146.593 626.943 143.607 627.684 Q146.987 628.471 148.862 630.763 Q150.76 633.054 150.76 636.365 Q150.76 641.388 147.681 644.073 Q144.626 646.758 138.908 646.758 Q133.191 646.758 130.112 644.073 Q127.057 641.388 127.057 636.365 Q127.057 633.054 128.955 630.763 Q130.853 628.471 134.232 627.684 M132.519 620.3 Q132.519 622.985 134.186 624.49 Q135.876 625.994 138.908 625.994 Q141.918 625.994 143.607 624.49 Q145.32 622.985 145.32 620.3 Q145.32 617.615 143.607 616.11 Q141.918 614.605 138.908 614.605 Q135.876 614.605 134.186 616.11 Q132.519 617.615 132.519 620.3 Z" fill="#000000" fill-rule="evenodd" fill-opacity="1" /><path clip-path="url(#clip730)" d="M63.4226 410.377 Q59.8115 410.377 57.9828 413.942 Q56.1773 417.484 56.1773 424.613 Q56.1773 431.72 57.9828 435.285 Q59.8115 438.826 63.4226 438.826 Q67.0569 438.826 68.8624 435.285 Q70.6911 431.72 70.6911 424.613 Q70.6911 417.484 68.8624 413.942 Q67.0569 410.377 63.4226 410.377 M63.4226 406.674 Q69.2328 406.674 72.2883 411.28 Q75.367 415.863 75.367 424.613 Q75.367 433.34 72.2883 437.947 Q69.2328 442.53 63.4226 442.53 Q57.6125 442.53 54.5338 437.947 Q51.4782 433.34 51.4782 424.613 Q51.4782 415.863 54.5338 411.28 Q57.6125 406.674 63.4226 406.674 Z" fill="#000000" fill-rule="evenodd" fill-opacity="1" /><path clip-path="url(#clip730)" d="M83.5845 435.979 L88.4688 435.979 L88.4688 441.859 L83.5845 441.859 L83.5845 435.979 Z" fill="#000000" fill-rule="evenodd" fill-opacity="1" /><path clip-path="url(#clip730)" d="M99.4641 437.924 L107.103 437.924 L107.103 411.558 L98.7928 413.225 L98.7928 408.965 L107.057 407.299 L111.733 407.299 L111.733 437.924 L119.371 437.924 L119.371 441.859 L99.4641 441.859 L99.4641 437.924 Z" fill="#000000" fill-rule="evenodd" fill-opacity="1" /><path clip-path="url(#clip730)" d="M138.816 410.377 Q135.205 410.377 133.376 413.942 Q131.57 417.484 131.57 424.613 Q131.57 431.72 133.376 435.285 Q135.205 438.826 138.816 438.826 Q142.45 438.826 144.256 435.285 Q146.084 431.72 146.084 424.613 Q146.084 417.484 144.256 413.942 Q142.45 410.377 138.816 410.377 M138.816 406.674 Q144.626 406.674 147.681 411.28 Q150.76 415.863 150.76 424.613 Q150.76 433.34 147.681 437.947 Q144.626 442.53 138.816 442.53 Q133.006 442.53 129.927 437.947 Q126.871 433.34 126.871 424.613 Q126.871 415.863 129.927 411.28 Q133.006 406.674 138.816 406.674 Z" fill="#000000" fill-rule="evenodd" fill-opacity="1" /><path clip-path="url(#clip730)" d="M65.0198 206.149 Q61.4087 206.149 59.58 209.714 Q57.7745 213.256 57.7745 220.385 Q57.7745 227.492 59.58 231.057 Q61.4087 234.598 65.0198 234.598 Q68.6541 234.598 70.4596 231.057 Q72.2883 227.492 72.2883 220.385 Q72.2883 213.256 70.4596 209.714 Q68.6541 206.149 65.0198 206.149 M65.0198 202.446 Q70.83 202.446 73.8855 207.052 Q76.9642 211.635 76.9642 220.385 Q76.9642 229.112 73.8855 233.719 Q70.83 238.302 65.0198 238.302 Q59.2097 238.302 56.131 233.719 Q53.0754 229.112 53.0754 220.385 Q53.0754 211.635 56.131 207.052 Q59.2097 202.446 65.0198 202.446 Z" fill="#000000" fill-rule="evenodd" fill-opacity="1" /><path clip-path="url(#clip730)" d="M85.1818 231.751 L90.066 231.751 L90.066 237.631 L85.1818 237.631 L85.1818 231.751 Z" fill="#000000" fill-rule="evenodd" fill-opacity="1" /><path clip-path="url(#clip730)" d="M101.061 233.696 L108.7 233.696 L108.7 207.33 L100.39 208.997 L100.39 204.737 L108.654 203.071 L113.33 203.071 L113.33 233.696 L120.969 233.696 L120.969 237.631 L101.061 237.631 L101.061 233.696 Z" fill="#000000" fill-rule="evenodd" fill-opacity="1" /><path clip-path="url(#clip730)" d="M134.441 233.696 L150.76 233.696 L150.76 237.631 L128.816 237.631 L128.816 233.696 Q131.478 230.941 136.061 226.311 Q140.668 221.659 141.848 220.316 Q144.093 217.793 144.973 216.057 Q145.876 214.297 145.876 212.608 Q145.876 209.853 143.931 208.117 Q142.01 206.381 138.908 206.381 Q136.709 206.381 134.256 207.145 Q131.825 207.909 129.047 209.46 L129.047 204.737 Q131.871 203.603 134.325 203.024 Q136.779 202.446 138.816 202.446 Q144.186 202.446 147.38 205.131 Q150.575 207.816 150.575 212.307 Q150.575 214.436 149.765 216.358 Q148.978 218.256 146.871 220.848 Q146.293 221.52 143.191 224.737 Q140.089 227.932 134.441 233.696 Z" fill="#000000" fill-rule="evenodd" fill-opacity="1" /><polyline clip-path="url(#clip732)" style="stroke:#009af9; stroke-linecap:butt; stroke-linejoin:round; stroke-width:4; stroke-opacity:1; fill:none" points="
  248.062,1445.72 258.33,1445.71 268.598,1445.71 278.867,1445.7 289.135,1445.68 299.403,1445.64 309.672,1445.57 319.94,1445.47 330.208,1445.29 340.477,1445.03 
  350.745,1444.64 361.013,1444.09 371.282,1443.35 381.55,1442.38 391.818,1441.16 402.086,1439.7 412.355,1438.05 422.623,1436.25 432.891,1434.39 443.16,1432.6 
  453.428,1430.97 463.696,1429.6 473.965,1428.54 484.233,1427.79 494.501,1427.26 504.769,1426.83 515.038,1426.26 525.306,1425.3 535.574,1423.68 545.843,1421.15 
  556.111,1417.48 566.379,1412.54 576.648,1406.27 586.916,1398.7 597.184,1389.95 607.452,1380.18 617.721,1369.58 627.989,1358.33 638.257,1346.57 648.526,1334.37 
  658.794,1321.73 669.062,1308.57 679.331,1294.75 689.599,1280.04 699.867,1264.21 710.136,1247.02 720.404,1228.24 730.672,1207.7 740.94,1185.29 751.209,1160.99 
  761.477,1134.82 771.745,1106.89 782.014,1077.36 792.282,1046.37 802.55,1014.06 812.819,980.541 823.087,945.892 833.355,910.169 843.623,873.447 853.892,835.86 
  864.16,797.65 874.428,759.194 884.697,721.013 894.965,683.75 905.233,648.112 915.502,614.784 925.77,584.329 936.038,557.093 946.306,533.131 956.575,512.177 
  966.843,493.663 977.111,476.794 987.38,460.657 997.648,444.354 1007.92,427.132 1018.18,408.485 1028.45,388.222 1038.72,366.477 1048.99,343.685 1059.26,320.505 
  1069.53,297.725 1079.79,276.147 1090.06,256.484 1100.33,239.276 1110.6,224.832 1120.87,213.225 1131.14,204.329 1141.4,197.891 1151.67,193.626 1161.94,191.314 
  1172.21,190.868 1182.48,192.359 1192.75,195.992 1203.01,202.037 1213.28,210.746 1223.55,222.263 1233.82,236.577 1244.09,253.507 1254.36,272.734 1264.62,293.858 
  1274.89,316.466 1285.16,340.187 1295.43,364.719 1305.7,389.839 1315.97,415.378 1326.23,441.207 1336.5,467.208 1346.77,493.279 1357.04,519.338 1367.31,545.351 
  1377.58,571.35 1387.84,597.442 1398.11,623.807 1408.38,650.672 1418.65,678.273 1428.92,706.813 1439.19,736.429 1449.45,767.165 1459.72,798.961 1469.99,831.655 
  1480.26,864.994 1490.53,898.649 1500.79,932.242 1511.06,965.376 1521.33,997.669 1531.6,1028.79 1541.87,1058.49 1552.14,1086.62 1562.4,1113.15 1572.67,1138.13 
  1582.94,1161.68 1593.21,1183.94 1603.48,1205.05 1613.75,1225.09 1624.01,1244.09 1634.28,1262.02 1644.55,1278.81 1654.82,1294.38 1665.09,1308.65 1675.36,1321.59 
  1685.62,1333.2 1695.89,1343.54 1706.16,1352.72 1716.43,1360.84 1726.7,1368.04 1736.97,1374.42 1747.23,1380.04 1757.5,1384.96 1767.77,1389.18 1778.04,1392.73 
  1788.31,1395.6 1798.58,1397.86 1808.84,1399.6 1819.11,1400.96 1829.38,1402.13 1839.65,1403.33 1849.92,1404.76 1860.19,1406.58 1870.45,1408.9 1880.72,1411.74 
  1890.99,1415.06 1901.26,1418.73 1911.53,1422.57 1921.8,1426.4 1932.06,1430.02 1942.33,1433.28 1952.6,1436.06 1962.87,1438.3 1973.14,1439.98 1983.41,1441.12 
  1993.67,1441.78 2003.94,1442.03 2014.21,1441.96 2024.48,1441.66 2034.75,1441.22 2045.01,1440.75 2055.28,1440.33 2065.55,1440.04 2075.82,1439.91 2086.09,1439.99 
  2096.36,1440.26 2106.62,1440.7 2116.89,1441.28 2127.16,1441.92 2137.43,1442.6 2147.7,1443.24 2157.97,1443.82 2168.23,1444.32 2178.5,1444.73 2188.77,1445.04 
  2199.04,1445.27 2209.31,1445.43 2219.58,1445.54 2229.84,1445.62 2240.11,1445.66 2250.38,1445.69 2260.65,1445.7 2270.92,1445.71 2281.19,1445.71 2291.45,1445.72 
  
  "/>
<polyline clip-path="url(#clip732)" style="stroke:#e26f46; stroke-linecap:butt; stroke-linejoin:round; stroke-width:4; stroke-opacity:1; fill:none" points="
  329.99,1444.37 335.509,1444.24 341.027,1444.11 392.051,1442.14 443.076,1438.18 473.74,1434.19 504.403,1428.41 530.329,1421.65 556.254,1412.68 570.336,1406.7 
  584.417,1399.8 598.498,1391.9 612.58,1382.87 625.561,1373.45 638.543,1362.9 651.525,1351.11 664.506,1337.99 678.424,1322.34 692.342,1304.95 706.26,1285.7 
  720.177,1264.49 736.302,1237.37 752.427,1207.37 768.553,1174.42 784.678,1138.46 799.008,1103.96 813.338,1067.08 827.668,1027.88 841.998,986.446 854.564,948.36 
  867.13,908.751 879.696,867.747 892.263,825.5 919.664,729.948 947.065,631.53 974.628,532.289 1002.19,435.831 1009.81,410.092 1017.43,384.884 1025.05,360.275 
  1032.67,336.336 1040.29,313.136 1047.91,290.742 1055.52,269.22 1063.14,248.636 1070.39,229.979 1077.64,212.279 1084.89,195.587 1092.14,179.95 1099.39,165.414 
  1106.64,152.02 1113.89,139.808 1121.14,128.814 1128.67,118.709 1136.21,109.988 1143.75,102.68 1151.29,96.8076 1158.82,92.3908 1166.36,89.4438 1173.9,87.9763 
  1181.44,87.993 1187.78,89.1578 1194.13,91.3717 1200.47,94.6296 1206.81,98.9238 1213.16,104.245 1219.5,110.579 1225.85,117.914 1232.19,126.231 1239.94,137.69 
  1247.69,150.547 1255.43,164.758 1263.18,180.276 1270.93,197.049 1278.67,215.023 1286.42,234.138 1294.17,254.334 1308.36,293.923 1322.55,336.506 1329.65,358.785 
  1336.74,381.649 1343.84,405.041 1350.94,428.906 1377.15,520.232 1403.37,614.428 1429.92,710.067 1456.48,803.481 1471.36,854.062 1486.24,902.978 1501.12,949.967 
  1516,994.815 1529.48,1033.46 1542.97,1070.11 1556.45,1104.7 1569.94,1137.19 1585.38,1171.78 1600.81,1203.6 1616.25,1232.71 1631.69,1259.18 1645.99,1281.42 
  1660.28,1301.57 1674.58,1319.75 1688.87,1336.07 1702.96,1350.46 1717.06,1363.27 1731.15,1374.63 1745.24,1384.66 1758.93,1393.24 1772.61,1400.77 1786.29,1407.36 
  1799.97,1413.1 1828.03,1422.59 1856.08,1429.56 1886.82,1435 1917.55,1438.74 1962.2,1442.1 2006.85,1443.91 2016.01,1444.16 2025.17,1444.37 
  "/>
<path clip-path="url(#clip730)" d="
M1987.46 250.738 L2280.56 250.738 L2280.56 95.2176 L1987.46 95.2176  Z
  " fill="#ffffff" fill-rule="evenodd" fill-opacity="1"/>
<polyline clip-path="url(#clip730)" style="stroke:#000000; stroke-linecap:butt; stroke-linejoin:round; stroke-width:4; stroke-opacity:1; fill:none" points="
  1987.46,250.738 2280.56,250.738 2280.56,95.2176 1987.46,95.2176 1987.46,250.738 
  "/>
<polyline clip-path="url(#clip730)" style="stroke:#009af9; stroke-linecap:butt; stroke-linejoin:round; stroke-width:4; stroke-opacity:1; fill:none" points="
  2011.53,147.058 2155.93,147.058 
  "/>
<path clip-path="url(#clip730)" d="M2193.84 166.745 Q2192.03 171.375 2190.32 172.787 Q2188.6 174.199 2185.73 174.199 L2182.33 174.199 L2182.33 170.634 L2184.83 170.634 Q2186.59 170.634 2187.56 169.8 Q2188.53 168.967 2189.71 165.865 L2190.48 163.921 L2179.99 138.412 L2184.51 138.412 L2192.61 158.689 L2200.71 138.412 L2205.22 138.412 L2193.84 166.745 Z" fill="#000000" fill-rule="evenodd" fill-opacity="1" /><path clip-path="url(#clip730)" d="M2212.52 160.402 L2220.15 160.402 L2220.15 134.037 L2211.84 135.703 L2211.84 131.444 L2220.11 129.778 L2224.78 129.778 L2224.78 160.402 L2232.42 160.402 L2232.42 164.338 L2212.52 164.338 L2212.52 160.402 Z" fill="#000000" fill-rule="evenodd" fill-opacity="1" /><polyline clip-path="url(#clip730)" style="stroke:#e26f46; stroke-linecap:butt; stroke-linejoin:round; stroke-width:4; stroke-opacity:1; fill:none" points="
  2011.53,198.898 2155.93,198.898 
  "/>
<path clip-path="url(#clip730)" d="M2193.84 218.585 Q2192.03 223.215 2190.32 224.627 Q2188.6 226.039 2185.73 226.039 L2182.33 226.039 L2182.33 222.474 L2184.83 222.474 Q2186.59 222.474 2187.56 221.64 Q2188.53 220.807 2189.71 217.705 L2190.48 215.761 L2179.99 190.252 L2184.51 190.252 L2192.61 210.529 L2200.71 190.252 L2205.22 190.252 L2193.84 218.585 Z" fill="#000000" fill-rule="evenodd" fill-opacity="1" /><path clip-path="url(#clip730)" d="M2215.73 212.242 L2232.05 212.242 L2232.05 216.178 L2210.11 216.178 L2210.11 212.242 Q2212.77 209.488 2217.35 204.858 Q2221.96 200.205 2223.14 198.863 Q2225.39 196.34 2226.27 194.604 Q2227.17 192.844 2227.17 191.155 Q2227.17 188.4 2225.22 186.664 Q2223.3 184.928 2220.2 184.928 Q2218 184.928 2215.55 185.692 Q2213.12 186.455 2210.34 188.006 L2210.34 183.284 Q2213.16 182.15 2215.62 181.571 Q2218.07 180.993 2220.11 180.993 Q2225.48 180.993 2228.67 183.678 Q2231.87 186.363 2231.87 190.854 Q2231.87 192.983 2231.06 194.905 Q2230.27 196.803 2228.16 199.395 Q2227.58 200.067 2224.48 203.284 Q2221.38 206.479 2215.73 212.242 Z" fill="#000000" fill-rule="evenodd" fill-opacity="1" /></svg>
