<?xml version="1.0" encoding="utf-8"?>
<svg xmlns="http://www.w3.org/2000/svg" xmlns:xlink="http://www.w3.org/1999/xlink" width="600" height="400" viewBox="0 0 2400 1600">
<defs>
  <clipPath id="clip180">
    <rect x="0" y="0" width="2400" height="1600"/>
  </clipPath>
</defs>
<path clip-path="url(#clip180)" d="
M0 1600 L2400 1600 L2400 0 L0 0  Z
  " fill="#ffffff" fill-rule="evenodd" fill-opacity="1"/>
<defs>
  <clipPath id="clip181">
    <rect x="480" y="0" width="1681" height="1600"/>
  </clipPath>
</defs>
<path clip-path="url(#clip180)" d="
M210.746 1423.18 L2352.76 1423.18 L2352.76 123.472 L210.746 123.472  Z
  " fill="#ffffff" fill-rule="evenodd" fill-opacity="1"/>
<defs>
  <clipPath id="clip182">
    <rect x="210" y="123" width="2143" height="1301"/>
  </clipPath>
</defs>
<polyline clip-path="url(#clip182)" style="stroke:#000000; stroke-linecap:butt; stroke-linejoin:round; stroke-width:2; stroke-opacity:0.1; fill:none" points="
  473.445,1423.18 473.445,123.472 
  "/>
<polyline clip-path="url(#clip182)" style="stroke:#000000; stroke-linecap:butt; stroke-linejoin:round; stroke-width:2; stroke-opacity:0.1; fill:none" points="
  877.598,1423.18 877.598,123.472 
  "/>
<polyline clip-path="url(#clip182)" style="stroke:#000000; stroke-linecap:butt; stroke-linejoin:round; stroke-width:2; stroke-opacity:0.1; fill:none" points="
  1281.75,1423.18 1281.75,123.472 
  "/>
<polyline clip-path="url(#clip182)" style="stroke:#000000; stroke-linecap:butt; stroke-linejoin:round; stroke-width:2; stroke-opacity:0.1; fill:none" points="
  1685.9,1423.18 1685.9,123.472 
  "/>
<polyline clip-path="url(#clip182)" style="stroke:#000000; stroke-linecap:butt; stroke-linejoin:round; stroke-width:2; stroke-opacity:0.1; fill:none" points="
  2090.06,1423.18 2090.06,123.472 
  "/>
<polyline clip-path="url(#clip180)" style="stroke:#000000; stroke-linecap:butt; stroke-linejoin:round; stroke-width:4; stroke-opacity:1; fill:none" points="
  210.746,1423.18 2352.76,1423.18 
  "/>
<polyline clip-path="url(#clip180)" style="stroke:#000000; stroke-linecap:butt; stroke-linejoin:round; stroke-width:4; stroke-opacity:1; fill:none" points="
  473.445,1423.18 473.445,1404.28 
  "/>
<polyline clip-path="url(#clip180)" style="stroke:#000000; stroke-linecap:butt; stroke-linejoin:round; stroke-width:4; stroke-opacity:1; fill:none" points="
  877.598,1423.18 877.598,1404.28 
  "/>
<polyline clip-path="url(#clip180)" style="stroke:#000000; stroke-linecap:butt; stroke-linejoin:round; stroke-width:4; stroke-opacity:1; fill:none" points="
  1281.75,1423.18 1281.75,1404.28 
  "/>
<polyline clip-path="url(#clip180)" style="stroke:#000000; stroke-linecap:butt; stroke-linejoin:round; stroke-width:4; stroke-opacity:1; fill:none" points="
  1685.9,1423.18 1685.9,1404.28 
  "/>
<polyline clip-path="url(#clip180)" style="stroke:#000000; stroke-linecap:butt; stroke-linejoin:round; stroke-width:4; stroke-opacity:1; fill:none" points="
  2090.06,1423.18 2090.06,1404.28 
  "/>
<path clip-path="url(#clip180)" d="M442.346 1468.75 L472.022 1468.75 L472.022 1472.69 L442.346 1472.69 L442.346 1468.75 Z" fill="#000000" fill-rule="evenodd" fill-opacity="1" /><path clip-path="url(#clip180)" d="M494.961 1455.09 L483.156 1473.54 L494.961 1473.54 L494.961 1455.09 M493.735 1451.02 L499.614 1451.02 L499.614 1473.54 L504.545 1473.54 L504.545 1477.43 L499.614 1477.43 L499.614 1485.58 L494.961 1485.58 L494.961 1477.43 L479.36 1477.43 L479.36 1472.92 L493.735 1451.02 Z" fill="#000000" fill-rule="evenodd" fill-opacity="1" /><path clip-path="url(#clip180)" d="M847.54 1468.75 L877.216 1468.75 L877.216 1472.69 L847.54 1472.69 L847.54 1468.75 Z" fill="#000000" fill-rule="evenodd" fill-opacity="1" /><path clip-path="url(#clip180)" d="M891.336 1481.64 L907.656 1481.64 L907.656 1485.58 L885.711 1485.58 L885.711 1481.64 Q888.374 1478.89 892.957 1474.26 Q897.563 1469.61 898.744 1468.27 Q900.989 1465.74 901.869 1464.01 Q902.772 1462.25 902.772 1460.56 Q902.772 1457.8 900.827 1456.07 Q898.906 1454.33 895.804 1454.33 Q893.605 1454.33 891.151 1455.09 Q888.721 1455.86 885.943 1457.41 L885.943 1452.69 Q888.767 1451.55 891.221 1450.97 Q893.674 1450.39 895.711 1450.39 Q901.082 1450.39 904.276 1453.08 Q907.471 1455.77 907.471 1460.26 Q907.471 1462.39 906.66 1464.31 Q905.873 1466.2 903.767 1468.8 Q903.188 1469.47 900.086 1472.69 Q896.985 1475.88 891.336 1481.64 Z" fill="#000000" fill-rule="evenodd" fill-opacity="1" /><path clip-path="url(#clip180)" d="M1281.75 1454.1 Q1278.14 1454.1 1276.31 1457.66 Q1274.51 1461.2 1274.51 1468.33 Q1274.51 1475.44 1276.31 1479.01 Q1278.14 1482.55 1281.75 1482.55 Q1285.39 1482.55 1287.19 1479.01 Q1289.02 1475.44 1289.02 1468.33 Q1289.02 1461.2 1287.19 1457.66 Q1285.39 1454.1 1281.75 1454.1 M1281.75 1450.39 Q1287.56 1450.39 1290.62 1455 Q1293.7 1459.58 1293.7 1468.33 Q1293.7 1477.06 1290.62 1481.67 Q1287.56 1486.25 1281.75 1486.25 Q1275.94 1486.25 1272.86 1481.67 Q1269.81 1477.06 1269.81 1468.33 Q1269.81 1459.58 1272.86 1455 Q1275.94 1450.39 1281.75 1450.39 Z" fill="#000000" fill-rule="evenodd" fill-opacity="1" /><path clip-path="url(#clip180)" d="M1680.56 1481.64 L1696.88 1481.64 L1696.88 1485.58 L1674.93 1485.58 L1674.93 1481.64 Q1677.59 1478.89 1682.18 1474.26 Q1686.78 1469.61 1687.96 1468.27 Q1690.21 1465.74 1691.09 1464.01 Q1691.99 1462.25 1691.99 1460.56 Q1691.99 1457.8 1690.05 1456.07 Q1688.13 1454.33 1685.02 1454.33 Q1682.83 1454.33 1680.37 1455.09 Q1677.94 1455.86 1675.16 1457.41 L1675.16 1452.69 Q1677.99 1451.55 1680.44 1450.97 Q1682.89 1450.39 1684.93 1450.39 Q1690.3 1450.39 1693.5 1453.08 Q1696.69 1455.77 1696.69 1460.26 Q1696.69 1462.39 1695.88 1464.31 Q1695.09 1466.2 1692.99 1468.8 Q1692.41 1469.47 1689.31 1472.69 Q1686.2 1475.88 1680.56 1481.64 Z" fill="#000000" fill-rule="evenodd" fill-opacity="1" /><path clip-path="url(#clip180)" d="M2093.07 1455.09 L2081.26 1473.54 L2093.07 1473.54 L2093.07 1455.09 M2091.84 1451.02 L2097.72 1451.02 L2097.72 1473.54 L2102.65 1473.54 L2102.65 1477.43 L2097.72 1477.43 L2097.72 1485.58 L2093.07 1485.58 L2093.07 1477.43 L2077.46 1477.43 L2077.46 1472.92 L2091.84 1451.02 Z" fill="#000000" fill-rule="evenodd" fill-opacity="1" /><path clip-path="url(#clip180)" d="M1188.49 1520.52 L1195.4 1520.52 L1207.21 1538.19 L1219.08 1520.52 L1225.99 1520.52 L1210.71 1543.34 L1227.01 1568.04 L1220.1 1568.04 L1206.73 1547.83 L1193.27 1568.04 L1186.33 1568.04 L1203.29 1542.68 L1188.49 1520.52 Z" fill="#000000" fill-rule="evenodd" fill-opacity="1" /><path clip-path="url(#clip180)" d="M1272.11 1550.12 Q1265.01 1550.12 1262.27 1551.75 Q1259.53 1553.37 1259.53 1557.29 Q1259.53 1560.4 1261.57 1562.25 Q1263.64 1564.07 1267.17 1564.07 Q1272.04 1564.07 1274.97 1560.63 Q1277.93 1557.16 1277.93 1551.43 L1277.93 1550.12 L1272.11 1550.12 M1283.79 1547.71 L1283.79 1568.04 L1277.93 1568.04 L1277.93 1562.63 Q1275.93 1565.88 1272.93 1567.44 Q1269.94 1568.97 1265.61 1568.97 Q1260.14 1568.97 1256.89 1565.91 Q1253.68 1562.82 1253.68 1557.67 Q1253.68 1551.65 1257.69 1548.6 Q1261.73 1545.54 1269.72 1545.54 L1277.93 1545.54 L1277.93 1544.97 Q1277.93 1540.93 1275.26 1538.73 Q1272.62 1536.5 1267.81 1536.5 Q1264.75 1536.5 1261.86 1537.23 Q1258.96 1537.97 1256.29 1539.43 L1256.29 1534.02 Q1259.5 1532.78 1262.53 1532.17 Q1265.55 1531.54 1268.41 1531.54 Q1276.15 1531.54 1279.97 1535.55 Q1283.79 1539.56 1283.79 1547.71 Z" fill="#000000" fill-rule="evenodd" fill-opacity="1" /><path clip-path="url(#clip180)" d="M1325.48 1532.4 L1312.59 1549.74 L1326.15 1568.04 L1319.24 1568.04 L1308.87 1554.04 L1298.49 1568.04 L1291.59 1568.04 L1305.43 1549.39 L1292.76 1532.4 L1299.67 1532.4 L1309.12 1545.1 L1318.58 1532.4 L1325.48 1532.4 Z" fill="#000000" fill-rule="evenodd" fill-opacity="1" /><path clip-path="url(#clip180)" d="M1334.43 1532.4 L1340.28 1532.4 L1340.28 1568.04 L1334.43 1568.04 L1334.43 1532.4 M1334.43 1518.52 L1340.28 1518.52 L1340.28 1525.93 L1334.43 1525.93 L1334.43 1518.52 Z" fill="#000000" fill-rule="evenodd" fill-opacity="1" /><path clip-path="url(#clip180)" d="M1375.26 1533.45 L1375.26 1538.98 Q1372.78 1537.71 1370.11 1537.07 Q1367.43 1536.44 1364.57 1536.44 Q1360.21 1536.44 1358.01 1537.77 Q1355.85 1539.11 1355.85 1541.79 Q1355.85 1543.82 1357.41 1545 Q1358.97 1546.15 1363.68 1547.2 L1365.68 1547.64 Q1371.92 1548.98 1374.53 1551.43 Q1377.17 1553.85 1377.17 1558.21 Q1377.17 1563.17 1373.23 1566.07 Q1369.31 1568.97 1362.44 1568.97 Q1359.57 1568.97 1356.45 1568.39 Q1353.37 1567.85 1349.93 1566.74 L1349.93 1560.69 Q1353.17 1562.38 1356.33 1563.24 Q1359.48 1564.07 1362.56 1564.07 Q1366.7 1564.07 1368.93 1562.66 Q1371.16 1561.23 1371.16 1558.65 Q1371.16 1556.27 1369.53 1554.99 Q1367.94 1553.72 1362.5 1552.54 L1360.46 1552.07 Q1355.02 1550.92 1352.6 1548.56 Q1350.18 1546.18 1350.18 1542.04 Q1350.18 1537.01 1353.75 1534.27 Q1357.31 1531.54 1363.87 1531.54 Q1367.12 1531.54 1369.98 1532.01 Q1372.84 1532.49 1375.26 1533.45 Z" fill="#000000" fill-rule="evenodd" fill-opacity="1" /><polyline clip-path="url(#clip182)" style="stroke:#000000; stroke-linecap:butt; stroke-linejoin:round; stroke-width:2; stroke-opacity:0.1; fill:none" points="
  210.746,1386.44 2352.76,1386.44 
  "/>
<polyline clip-path="url(#clip182)" style="stroke:#000000; stroke-linecap:butt; stroke-linejoin:round; stroke-width:2; stroke-opacity:0.1; fill:none" points="
  210.746,1182.08 2352.76,1182.08 
  "/>
<polyline clip-path="url(#clip182)" style="stroke:#000000; stroke-linecap:butt; stroke-linejoin:round; stroke-width:2; stroke-opacity:0.1; fill:none" points="
  210.746,977.713 2352.76,977.713 
  "/>
<polyline clip-path="url(#clip182)" style="stroke:#000000; stroke-linecap:butt; stroke-linejoin:round; stroke-width:2; stroke-opacity:0.1; fill:none" points="
  210.746,773.349 2352.76,773.349 
  "/>
<polyline clip-path="url(#clip182)" style="stroke:#000000; stroke-linecap:butt; stroke-linejoin:round; stroke-width:2; stroke-opacity:0.1; fill:none" points="
  210.746,568.985 2352.76,568.985 
  "/>
<polyline clip-path="url(#clip182)" style="stroke:#000000; stroke-linecap:butt; stroke-linejoin:round; stroke-width:2; stroke-opacity:0.1; fill:none" points="
  210.746,364.621 2352.76,364.621 
  "/>
<polyline clip-path="url(#clip182)" style="stroke:#000000; stroke-linecap:butt; stroke-linejoin:round; stroke-width:2; stroke-opacity:0.1; fill:none" points="
  210.746,160.256 2352.76,160.256 
  "/>
<polyline clip-path="url(#clip180)" style="stroke:#000000; stroke-linecap:butt; stroke-linejoin:round; stroke-width:4; stroke-opacity:1; fill:none" points="
  210.746,1423.18 210.746,123.472 
  "/>
<polyline clip-path="url(#clip180)" style="stroke:#000000; stroke-linecap:butt; stroke-linejoin:round; stroke-width:4; stroke-opacity:1; fill:none" points="
  210.746,1386.44 229.644,1386.44 
  "/>
<polyline clip-path="url(#clip180)" style="stroke:#000000; stroke-linecap:butt; stroke-linejoin:round; stroke-width:4; stroke-opacity:1; fill:none" points="
  210.746,1182.08 229.644,1182.08 
  "/>
<polyline clip-path="url(#clip180)" style="stroke:#000000; stroke-linecap:butt; stroke-linejoin:round; stroke-width:4; stroke-opacity:1; fill:none" points="
  210.746,977.713 229.644,977.713 
  "/>
<polyline clip-path="url(#clip180)" style="stroke:#000000; stroke-linecap:butt; stroke-linejoin:round; stroke-width:4; stroke-opacity:1; fill:none" points="
  210.746,773.349 229.644,773.349 
  "/>
<polyline clip-path="url(#clip180)" style="stroke:#000000; stroke-linecap:butt; stroke-linejoin:round; stroke-width:4; stroke-opacity:1; fill:none" points="
  210.746,568.985 229.644,568.985 
  "/>
<polyline clip-path="url(#clip180)" style="stroke:#000000; stroke-linecap:butt; stroke-linejoin:round; stroke-width:4; stroke-opacity:1; fill:none" points="
  210.746,364.621 229.644,364.621 
  "/>
<polyline clip-path="url(#clip180)" style="stroke:#000000; stroke-linecap:butt; stroke-linejoin:round; stroke-width:4; stroke-opacity:1; fill:none" points="
  210.746,160.256 229.644,160.256 
  "/>
<path clip-path="url(#clip180)" d="M114.26 1386.89 L143.936 1386.89 L143.936 1390.83 L114.26 1390.83 L114.26 1386.89 Z" fill="#000000" fill-rule="evenodd" fill-opacity="1" /><path clip-path="url(#clip180)" d="M154.839 1399.79 L162.477 1399.79 L162.477 1373.42 L154.167 1375.09 L154.167 1370.83 L162.431 1369.16 L167.107 1369.16 L167.107 1399.79 L174.746 1399.79 L174.746 1403.72 L154.839 1403.72 L154.839 1399.79 Z" fill="#000000" fill-rule="evenodd" fill-opacity="1" /><path clip-path="url(#clip180)" d="M162.802 1167.88 Q159.19 1167.88 157.362 1171.44 Q155.556 1174.98 155.556 1182.11 Q155.556 1189.22 157.362 1192.78 Q159.19 1196.33 162.802 1196.33 Q166.436 1196.33 168.241 1192.78 Q170.07 1189.22 170.07 1182.11 Q170.07 1174.98 168.241 1171.44 Q166.436 1167.88 162.802 1167.88 M162.802 1164.17 Q168.612 1164.17 171.667 1168.78 Q174.746 1173.36 174.746 1182.11 Q174.746 1190.84 171.667 1195.45 Q168.612 1200.03 162.802 1200.03 Q156.991 1200.03 153.913 1195.45 Q150.857 1190.84 150.857 1182.11 Q150.857 1173.36 153.913 1168.78 Q156.991 1164.17 162.802 1164.17 Z" fill="#000000" fill-rule="evenodd" fill-opacity="1" /><path clip-path="url(#clip180)" d="M154.839 991.058 L162.477 991.058 L162.477 964.693 L154.167 966.359 L154.167 962.1 L162.431 960.433 L167.107 960.433 L167.107 991.058 L174.746 991.058 L174.746 994.993 L154.839 994.993 L154.839 991.058 Z" fill="#000000" fill-rule="evenodd" fill-opacity="1" /><path clip-path="url(#clip180)" d="M158.427 786.694 L174.746 786.694 L174.746 790.629 L152.802 790.629 L152.802 786.694 Q155.464 783.939 160.047 779.31 Q164.653 774.657 165.834 773.314 Q168.079 770.791 168.959 769.055 Q169.862 767.296 169.862 765.606 Q169.862 762.851 167.917 761.115 Q165.996 759.379 162.894 759.379 Q160.695 759.379 158.241 760.143 Q155.811 760.907 153.033 762.458 L153.033 757.736 Q155.857 756.601 158.311 756.023 Q160.765 755.444 162.802 755.444 Q168.172 755.444 171.366 758.129 Q174.561 760.814 174.561 765.305 Q174.561 767.435 173.751 769.356 Q172.964 771.254 170.857 773.847 Q170.278 774.518 167.177 777.736 Q164.075 780.93 158.427 786.694 Z" fill="#000000" fill-rule="evenodd" fill-opacity="1" /><path clip-path="url(#clip180)" d="M167.616 567.631 Q170.973 568.348 172.848 570.617 Q174.746 572.885 174.746 576.219 Q174.746 581.334 171.227 584.135 Q167.709 586.936 161.227 586.936 Q159.052 586.936 156.737 586.496 Q154.445 586.08 151.991 585.223 L151.991 580.709 Q153.936 581.844 156.251 582.422 Q158.565 583.001 161.089 583.001 Q165.487 583.001 167.778 581.265 Q170.093 579.529 170.093 576.219 Q170.093 573.163 167.94 571.45 Q165.811 569.714 161.991 569.714 L157.964 569.714 L157.964 565.871 L162.177 565.871 Q165.626 565.871 167.454 564.506 Q169.283 563.117 169.283 560.524 Q169.283 557.862 167.385 556.45 Q165.51 555.015 161.991 555.015 Q160.07 555.015 157.871 555.432 Q155.672 555.848 153.033 556.728 L153.033 552.561 Q155.695 551.821 158.01 551.45 Q160.348 551.08 162.408 551.08 Q167.732 551.08 170.834 553.51 Q173.936 555.918 173.936 560.038 Q173.936 562.908 172.292 564.899 Q170.649 566.867 167.616 567.631 Z" fill="#000000" fill-rule="evenodd" fill-opacity="1" /><path clip-path="url(#clip180)" d="M165.163 351.415 L153.357 369.864 L165.163 369.864 L165.163 351.415 M163.936 347.341 L169.815 347.341 L169.815 369.864 L174.746 369.864 L174.746 373.752 L169.815 373.752 L169.815 381.901 L165.163 381.901 L165.163 373.752 L149.561 373.752 L149.561 369.239 L163.936 347.341 Z" fill="#000000" fill-rule="evenodd" fill-opacity="1" /><path clip-path="url(#clip180)" d="M153.843 142.976 L172.2 142.976 L172.2 146.911 L158.126 146.911 L158.126 155.384 Q159.144 155.036 160.163 154.874 Q161.181 154.689 162.2 154.689 Q167.987 154.689 171.366 157.86 Q174.746 161.032 174.746 166.448 Q174.746 172.027 171.274 175.129 Q167.802 178.208 161.482 178.208 Q159.306 178.208 157.038 177.837 Q154.792 177.467 152.385 176.726 L152.385 172.027 Q154.468 173.161 156.69 173.717 Q158.913 174.272 161.39 174.272 Q165.394 174.272 167.732 172.166 Q170.07 170.059 170.07 166.448 Q170.07 162.837 167.732 160.731 Q165.394 158.624 161.39 158.624 Q159.515 158.624 157.64 159.041 Q155.788 159.458 153.843 160.337 L153.843 142.976 Z" fill="#000000" fill-rule="evenodd" fill-opacity="1" /><path clip-path="url(#clip180)" d="M16.4842 867.363 L16.4842 860.457 L36.0269 847.28 L16.4842 834.198 L16.4842 827.291 L41.3741 844.097 L64.0042 844.097 L64.0042 850.558 L41.3741 850.558 L16.4842 867.363 Z" fill="#000000" fill-rule="evenodd" fill-opacity="1" /><path clip-path="url(#clip180)" d="M46.0847 784.355 Q46.0847 791.452 47.7079 794.19 Q49.3312 796.927 53.2461 796.927 Q56.3653 796.927 58.2114 794.89 Q60.0256 792.821 60.0256 789.288 Q60.0256 784.418 56.5881 781.49 Q53.1188 778.53 47.3897 778.53 L46.0847 778.53 L46.0847 784.355 M43.6657 772.673 L64.0042 772.673 L64.0042 778.53 L58.5933 778.53 Q61.8398 780.535 63.3994 783.527 Q64.9272 786.519 64.9272 790.848 Q64.9272 796.322 61.8716 799.569 Q58.7843 802.783 53.6281 802.783 Q47.6125 802.783 44.5569 798.773 Q41.5014 794.731 41.5014 786.742 L41.5014 778.53 L40.9285 778.53 Q36.8862 778.53 34.6901 781.204 Q32.4621 783.845 32.4621 788.651 Q32.4621 791.707 33.1941 794.603 Q33.9262 797.5 35.3903 800.173 L29.9795 800.173 Q28.7381 796.959 28.1334 793.935 Q27.4968 790.911 27.4968 788.047 Q27.4968 780.312 31.5072 776.493 Q35.5176 772.673 43.6657 772.673 Z" fill="#000000" fill-rule="evenodd" fill-opacity="1" /><path clip-path="url(#clip180)" d="M28.3562 730.978 L45.7028 743.869 L64.0042 730.31 L64.0042 737.217 L49.9996 747.593 L64.0042 757.969 L64.0042 764.876 L45.3526 751.03 L28.3562 763.698 L28.3562 756.791 L41.0558 747.338 L28.3562 737.885 L28.3562 730.978 Z" fill="#000000" fill-rule="evenodd" fill-opacity="1" /><path clip-path="url(#clip180)" d="M28.3562 722.034 L28.3562 716.178 L64.0042 716.178 L64.0042 722.034 L28.3562 722.034 M14.479 722.034 L14.479 716.178 L21.895 716.178 L21.895 722.034 L14.479 722.034 Z" fill="#000000" fill-rule="evenodd" fill-opacity="1" /><path clip-path="url(#clip180)" d="M29.4065 681.198 L34.9447 681.198 Q33.6716 683.681 33.035 686.355 Q32.3984 689.028 32.3984 691.893 Q32.3984 696.253 33.7352 698.449 Q35.072 700.614 37.7456 700.614 Q39.7826 700.614 40.9603 699.054 Q42.1061 697.495 43.1565 692.784 L43.6021 690.779 Q44.9389 684.54 47.3897 681.93 Q49.8086 679.289 54.1691 679.289 Q59.1344 679.289 62.0308 683.235 Q64.9272 687.15 64.9272 694.025 Q64.9272 696.89 64.3543 700.009 Q63.8132 703.096 62.6992 706.534 L56.6518 706.534 Q58.3387 703.287 59.198 700.136 Q60.0256 696.985 60.0256 693.898 Q60.0256 689.76 58.6251 687.532 Q57.1929 685.304 54.6147 685.304 Q52.2276 685.304 50.9545 686.927 Q49.6813 688.519 48.5037 693.962 L48.0262 695.999 Q46.8804 701.441 44.5251 703.86 Q42.138 706.279 38.0002 706.279 Q32.9713 706.279 30.2341 702.714 Q27.4968 699.15 27.4968 692.593 Q27.4968 689.346 27.9743 686.482 Q28.4517 683.617 29.4065 681.198 Z" fill="#000000" fill-rule="evenodd" fill-opacity="1" /><path clip-path="url(#clip180)" d="M1126.78 16.7545 L1126.78 25.383 Q1122.65 21.5346 1117.95 19.6307 Q1113.29 17.7268 1108.03 17.7268 Q1097.66 17.7268 1092.15 24.0867 Q1086.64 30.4061 1086.64 42.3968 Q1086.64 54.3469 1092.15 60.7069 Q1097.66 67.0263 1108.03 67.0263 Q1113.29 67.0263 1117.95 65.1223 Q1122.65 63.2184 1126.78 59.3701 L1126.78 67.9175 Q1122.49 70.8341 1117.67 72.2924 Q1112.89 73.7508 1107.54 73.7508 Q1093.81 73.7508 1085.91 65.3654 Q1078.01 56.9395 1078.01 42.3968 Q1078.01 27.8135 1085.91 19.4281 Q1093.81 11.0023 1107.54 11.0023 Q1112.97 11.0023 1117.75 12.4606 Q1122.57 13.8784 1126.78 16.7545 Z" fill="#000000" fill-rule="evenodd" fill-opacity="1" /><path clip-path="url(#clip180)" d="M1176.81 45.1919 L1176.81 72.576 L1169.36 72.576 L1169.36 45.4349 Q1169.36 38.994 1166.85 35.7938 Q1164.34 32.5936 1159.31 32.5936 Q1153.28 32.5936 1149.79 36.4419 Q1146.31 40.2903 1146.31 46.9338 L1146.31 72.576 L1138.81 72.576 L1138.81 9.54393 L1146.31 9.54393 L1146.31 34.2544 Q1148.98 30.163 1152.59 28.1376 Q1156.23 26.1121 1160.97 26.1121 Q1168.79 26.1121 1172.8 30.9732 Q1176.81 35.7938 1176.81 45.1919 Z" fill="#000000" fill-rule="evenodd" fill-opacity="1" /><path clip-path="url(#clip180)" d="M1212.3 49.7694 Q1203.26 49.7694 1199.78 51.8354 Q1196.3 53.9013 1196.3 58.8839 Q1196.3 62.8538 1198.89 65.2034 Q1201.52 67.5124 1206.02 67.5124 Q1212.22 67.5124 1215.94 63.1374 Q1219.71 58.7219 1219.71 51.4303 L1219.71 49.7694 L1212.3 49.7694 M1227.16 46.6907 L1227.16 72.576 L1219.71 72.576 L1219.71 65.6895 Q1217.16 69.8214 1213.35 71.8063 Q1209.54 73.7508 1204.03 73.7508 Q1197.07 73.7508 1192.93 69.8619 Q1188.84 65.9325 1188.84 59.3701 Q1188.84 51.7138 1193.95 47.825 Q1199.09 43.9361 1209.26 43.9361 L1219.71 43.9361 L1219.71 43.2069 Q1219.71 38.0623 1216.31 35.2672 Q1212.95 32.4315 1206.83 32.4315 Q1202.94 32.4315 1199.25 33.3632 Q1195.57 34.295 1192.17 36.1584 L1192.17 29.2718 Q1196.26 27.692 1200.1 26.9223 Q1203.95 26.1121 1207.6 26.1121 Q1217.44 26.1121 1222.3 31.2163 Q1227.16 36.3204 1227.16 46.6907 Z" fill="#000000" fill-rule="evenodd" fill-opacity="1" /><path clip-path="url(#clip180)" d="M1268.81 34.1734 Q1267.55 33.4443 1266.05 33.1202 Q1264.6 32.7556 1262.81 32.7556 Q1256.49 32.7556 1253.09 36.8875 Q1249.73 40.9789 1249.73 48.6757 L1249.73 72.576 L1242.23 72.576 L1242.23 27.2059 L1249.73 27.2059 L1249.73 34.2544 Q1252.08 30.1225 1255.85 28.1376 Q1259.61 26.1121 1265 26.1121 Q1265.77 26.1121 1266.7 26.2337 Q1267.63 26.3147 1268.77 26.5172 L1268.81 34.1734 Z" fill="#000000" fill-rule="evenodd" fill-opacity="1" /><path clip-path="url(#clip180)" d="M1284 14.324 L1284 27.2059 L1299.35 27.2059 L1299.35 32.9987 L1284 32.9987 L1284 57.6282 Q1284 63.1779 1285.5 64.7578 Q1287.04 66.3376 1291.7 66.3376 L1299.35 66.3376 L1299.35 72.576 L1291.7 72.576 Q1283.07 72.576 1279.79 69.3758 Q1276.51 66.1351 1276.51 57.6282 L1276.51 32.9987 L1271.04 32.9987 L1271.04 27.2059 L1276.51 27.2059 L1276.51 14.324 L1284 14.324 Z" fill="#000000" fill-rule="evenodd" fill-opacity="1" /><path clip-path="url(#clip180)" d="M1342.9 14.324 L1342.9 27.2059 L1358.25 27.2059 L1358.25 32.9987 L1342.9 32.9987 L1342.9 57.6282 Q1342.9 63.1779 1344.4 64.7578 Q1345.94 66.3376 1350.6 66.3376 L1358.25 66.3376 L1358.25 72.576 L1350.6 72.576 Q1341.97 72.576 1338.69 69.3758 Q1335.41 66.1351 1335.41 57.6282 L1335.41 32.9987 L1329.94 32.9987 L1329.94 27.2059 L1335.41 27.2059 L1335.41 14.324 L1342.9 14.324 Z" fill="#000000" fill-rule="evenodd" fill-opacity="1" /><path clip-path="url(#clip180)" d="M1368.06 27.2059 L1375.51 27.2059 L1375.51 72.576 L1368.06 72.576 L1368.06 27.2059 M1368.06 9.54393 L1375.51 9.54393 L1375.51 18.9825 L1368.06 18.9825 L1368.06 9.54393 Z" fill="#000000" fill-rule="evenodd" fill-opacity="1" /><path clip-path="url(#clip180)" d="M1398.48 14.324 L1398.48 27.2059 L1413.83 27.2059 L1413.83 32.9987 L1398.48 32.9987 L1398.48 57.6282 Q1398.48 63.1779 1399.98 64.7578 Q1401.52 66.3376 1406.17 66.3376 L1413.83 66.3376 L1413.83 72.576 L1406.17 72.576 Q1397.55 72.576 1394.26 69.3758 Q1390.98 66.1351 1390.98 57.6282 L1390.98 32.9987 L1385.51 32.9987 L1385.51 27.2059 L1390.98 27.2059 L1390.98 14.324 L1398.48 14.324 Z" fill="#000000" fill-rule="evenodd" fill-opacity="1" /><path clip-path="url(#clip180)" d="M1423.63 9.54393 L1431.09 9.54393 L1431.09 72.576 L1423.63 72.576 L1423.63 9.54393 Z" fill="#000000" fill-rule="evenodd" fill-opacity="1" /><path clip-path="url(#clip180)" d="M1485.49 48.0275 L1485.49 51.6733 L1451.22 51.6733 Q1451.71 59.3701 1455.84 63.421 Q1460.01 67.4314 1467.42 67.4314 Q1471.72 67.4314 1475.73 66.3781 Q1479.78 65.3249 1483.75 63.2184 L1483.75 70.267 Q1479.74 71.9684 1475.53 72.8596 Q1471.31 73.7508 1466.98 73.7508 Q1456.12 73.7508 1449.76 67.4314 Q1443.44 61.1119 1443.44 50.3365 Q1443.44 39.1965 1449.44 32.6746 Q1455.47 26.1121 1465.68 26.1121 Q1474.84 26.1121 1480.14 32.0264 Q1485.49 37.9003 1485.49 48.0275 M1478.04 45.84 Q1477.96 39.7232 1474.59 36.0774 Q1471.27 32.4315 1465.76 32.4315 Q1459.52 32.4315 1455.76 35.9558 Q1452.03 39.4801 1451.46 45.8805 L1478.04 45.84 Z" fill="#000000" fill-rule="evenodd" fill-opacity="1" /><polyline clip-path="url(#clip182)" style="stroke:#009af9; stroke-linecap:butt; stroke-linejoin:round; stroke-width:4; stroke-opacity:1; fill:none" points="
  271.369,1124.11 276.302,1128.91 281.236,1133.74 286.17,1138.6 291.103,1143.49 336.722,1189.39 382.34,1234.92 427.958,1277.77 473.576,1315.76 500.991,1335.44 
  528.406,1352.3 555.821,1366.03 583.235,1376.38 606.414,1382.35 629.593,1385.69 652.772,1386.36 675.95,1384.34 701.129,1379.13 726.308,1370.87 751.486,1359.68 
  776.665,1345.74 799.877,1330.63 823.09,1313.57 846.302,1294.77 869.515,1274.49 919.287,1227.25 969.06,1177.29 1026.73,1119.97 1084.39,1067.67 1110.02,1047.18 
  1135.64,1028.85 1161.26,1012.98 1186.89,999.822 1209.36,990.688 1231.83,983.919 1254.29,979.597 1276.76,977.776 1301.26,978.665 1325.76,982.541 1350.26,989.345 
  1374.76,998.979 1399.4,1011.38 1424.04,1026.32 1448.69,1043.57 1473.33,1062.88 1527.82,1111.41 1582.31,1165.05 1634.16,1217.29 1686.01,1267.22 1712.97,1291.17 
  1739.92,1313.19 1766.88,1332.87 1793.83,1349.88 1816.52,1361.89 1839.21,1371.64 1861.9,1379 1884.59,1383.89 1912.3,1386.4 1940,1385.07 1967.7,1379.94 
  1995.41,1371.09 2021.45,1359.54 2047.49,1345.05 2073.53,1327.85 2099.57,1308.23 2141.29,1272.59 2183.01,1233.11 2224.73,1191.46 2266.45,1149.41 2272.87,1143.02 
  2279.29,1136.67 2285.71,1130.36 2292.13,1124.11 
  "/>
<polyline clip-path="url(#clip182)" style="stroke:#e26f46; stroke-linecap:butt; stroke-linejoin:round; stroke-width:4; stroke-opacity:1; fill:none" points="
  877.598,364.621 881.545,380.509 885.492,396.241 921.987,534.324 958.481,659.075 980.413,727.632 1002.34,791.375 1020.89,841.513 1039.43,888.209 1059.57,935.034 
  1079.72,977.798 1098.29,1013.63 1116.86,1046 1136.77,1076.88 1156.67,1103.78 1179.74,1130 1202.81,1150.89 1223.31,1164.98 1243.81,1174.87 1261.78,1180.08 
  1279.76,1182.06 1299.35,1180.53 1318.95,1175.15 1338.67,1165.87 1358.38,1152.69 1380.18,1133.59 1401.98,1109.74 1422.72,1082.63 1443.46,1051.21 1465.02,1013.98 
  1486.58,972.1 1504.74,933.235 1522.89,891.071 1545.05,835.122 1567.21,774.257 1588.05,712.559 1608.88,646.517 1642.25,531.658 1675.63,405.649 1680.77,385.267 
  1685.9,364.621 
  "/>
<polyline clip-path="url(#clip182)" style="stroke:#000000; stroke-linecap:butt; stroke-linejoin:round; stroke-width:4; stroke-opacity:1; fill:none" stroke-dasharray="2, 4" points="
  271.369,773.349 291.103,773.349 473.576,773.349 583.235,773.349 675.95,773.349 776.665,773.349 869.515,773.349 969.06,773.349 1084.39,773.349 1186.89,773.349 
  1276.76,773.349 1374.76,773.349 1473.33,773.349 1527.82,773.349 1582.31,773.349 1608.24,773.349 1634.16,773.349 1660.09,773.349 1686.01,773.24 1712.97,745.979 
  1739.92,718.719 1766.88,691.459 1793.83,664.198 1839.21,618.303 1884.59,572.408 1995.41,460.343 2099.57,354.999 2266.45,186.229 2292.13,160.256 
  "/>
<path clip-path="url(#clip180)" d="
M282.146 374.156 L823.826 374.156 L823.826 166.796 L282.146 166.796  Z
  " fill="#ffffff" fill-rule="evenodd" fill-opacity="1"/>
<polyline clip-path="url(#clip180)" style="stroke:#000000; stroke-linecap:butt; stroke-linejoin:round; stroke-width:4; stroke-opacity:1; fill:none" points="
  282.146,374.156 823.826,374.156 823.826,166.796 282.146,166.796 282.146,374.156 
  "/>
<polyline clip-path="url(#clip180)" style="stroke:#009af9; stroke-linecap:butt; stroke-linejoin:round; stroke-width:4; stroke-opacity:1; fill:none" points="
  305.946,218.636 448.747,218.636 
  "/>
<path clip-path="url(#clip180)" d="M486.39 238.323 Q484.584 242.953 482.871 244.365 Q481.158 245.777 478.288 245.777 L474.885 245.777 L474.885 242.212 L477.385 242.212 Q479.144 242.212 480.117 241.379 Q481.089 240.545 482.269 237.443 L483.033 235.499 L472.547 209.99 L477.061 209.99 L485.163 230.268 L493.265 209.99 L497.779 209.99 L486.39 238.323 Z" fill="#000000" fill-rule="evenodd" fill-opacity="1" /><path clip-path="url(#clip180)" d="M505.07 231.981 L512.709 231.981 L512.709 205.615 L504.399 207.282 L504.399 203.022 L512.663 201.356 L517.339 201.356 L517.339 231.981 L524.977 231.981 L524.977 235.916 L505.07 235.916 L505.07 231.981 Z" fill="#000000" fill-rule="evenodd" fill-opacity="1" /><polyline clip-path="url(#clip180)" style="stroke:#e26f46; stroke-linecap:butt; stroke-linejoin:round; stroke-width:4; stroke-opacity:1; fill:none" points="
  305.946,270.476 448.747,270.476 
  "/>
<path clip-path="url(#clip180)" d="M486.39 290.163 Q484.584 294.793 482.871 296.205 Q481.158 297.617 478.288 297.617 L474.885 297.617 L474.885 294.052 L477.385 294.052 Q479.144 294.052 480.117 293.219 Q481.089 292.385 482.269 289.283 L483.033 287.339 L472.547 261.83 L477.061 261.83 L485.163 282.108 L493.265 261.83 L497.779 261.83 L486.39 290.163 Z" fill="#000000" fill-rule="evenodd" fill-opacity="1" /><path clip-path="url(#clip180)" d="M508.288 283.821 L524.607 283.821 L524.607 287.756 L502.663 287.756 L502.663 283.821 Q505.325 281.066 509.908 276.436 Q514.515 271.784 515.695 270.441 Q517.94 267.918 518.82 266.182 Q519.723 264.423 519.723 262.733 Q519.723 259.978 517.778 258.242 Q515.857 256.506 512.755 256.506 Q510.556 256.506 508.103 257.27 Q505.672 258.034 502.894 259.585 L502.894 254.862 Q505.718 253.728 508.172 253.149 Q510.626 252.571 512.663 252.571 Q518.033 252.571 521.227 255.256 Q524.422 257.941 524.422 262.432 Q524.422 264.561 523.612 266.483 Q522.825 268.381 520.718 270.973 Q520.139 271.645 517.038 274.862 Q513.936 278.057 508.288 283.821 Z" fill="#000000" fill-rule="evenodd" fill-opacity="1" /><polyline clip-path="url(#clip180)" style="stroke:#000000; stroke-linecap:butt; stroke-linejoin:round; stroke-width:4; stroke-opacity:1; fill:none" stroke-dasharray="2, 4" points="
  305.946,322.316 448.747,322.316 
  "/>
<path clip-path="url(#clip180)" d="M492.894 318.647 Q494.491 315.776 496.714 314.411 Q498.936 313.045 501.945 313.045 Q505.996 313.045 508.195 315.892 Q510.394 318.716 510.394 323.948 L510.394 339.596 L506.112 339.596 L506.112 324.087 Q506.112 320.36 504.792 318.554 Q503.473 316.749 500.765 316.749 Q497.454 316.749 495.533 318.948 Q493.612 321.147 493.612 324.943 L493.612 339.596 L489.329 339.596 L489.329 324.087 Q489.329 320.337 488.01 318.554 Q486.691 316.749 483.936 316.749 Q480.672 316.749 478.751 318.971 Q476.83 321.17 476.83 324.943 L476.83 339.596 L472.547 339.596 L472.547 313.67 L476.83 313.67 L476.83 317.698 Q478.288 315.313 480.325 314.179 Q482.362 313.045 485.163 313.045 Q487.987 313.045 489.954 314.48 Q491.945 315.915 492.894 318.647 Z" fill="#000000" fill-rule="evenodd" fill-opacity="1" /><path clip-path="url(#clip180)" d="M530.672 326.563 Q525.51 326.563 523.519 327.744 Q521.528 328.924 521.528 331.772 Q521.528 334.04 523.01 335.383 Q524.514 336.702 527.084 336.702 Q530.626 336.702 532.755 334.202 Q534.908 331.679 534.908 327.512 L534.908 326.563 L530.672 326.563 M539.167 324.804 L539.167 339.596 L534.908 339.596 L534.908 335.661 Q533.45 338.022 531.274 339.156 Q529.098 340.267 525.95 340.267 Q521.968 340.267 519.607 338.045 Q517.269 335.799 517.269 332.049 Q517.269 327.674 520.186 325.452 Q523.126 323.23 528.936 323.23 L534.908 323.23 L534.908 322.813 Q534.908 319.874 532.964 318.276 Q531.042 316.656 527.547 316.656 Q525.325 316.656 523.218 317.188 Q521.112 317.721 519.167 318.786 L519.167 314.85 Q521.505 313.948 523.704 313.508 Q525.903 313.045 527.987 313.045 Q533.612 313.045 536.389 315.962 Q539.167 318.878 539.167 324.804 Z" fill="#000000" fill-rule="evenodd" fill-opacity="1" /><path clip-path="url(#clip180)" d="M569.491 313.67 L560.116 326.286 L569.977 339.596 L564.954 339.596 L557.408 329.411 L549.862 339.596 L544.838 339.596 L554.908 326.031 L545.695 313.67 L550.718 313.67 L557.593 322.906 L564.468 313.67 L569.491 313.67 Z" fill="#000000" fill-rule="evenodd" fill-opacity="1" /><path clip-path="url(#clip180)" d="M604.19 303.577 L604.19 307.119 L600.116 307.119 Q597.824 307.119 596.921 308.045 Q596.042 308.971 596.042 311.378 L596.042 313.67 L603.056 313.67 L603.056 316.98 L596.042 316.98 L596.042 339.596 L591.759 339.596 L591.759 316.98 L587.685 316.98 L587.685 313.67 L591.759 313.67 L591.759 311.864 Q591.759 307.536 593.773 305.568 Q595.787 303.577 600.162 303.577 L604.19 303.577 Z" fill="#000000" fill-rule="evenodd" fill-opacity="1" /><path clip-path="url(#clip180)" d="M607.315 329.364 L607.315 313.67 L611.574 313.67 L611.574 329.202 Q611.574 332.883 613.009 334.735 Q614.445 336.563 617.315 336.563 Q620.764 336.563 622.755 334.364 Q624.769 332.165 624.769 328.369 L624.769 313.67 L629.028 313.67 L629.028 339.596 L624.769 339.596 L624.769 335.614 Q623.218 337.975 621.157 339.133 Q619.12 340.267 616.412 340.267 Q611.945 340.267 609.63 337.489 Q607.315 334.711 607.315 329.364 M618.032 313.045 L618.032 313.045 Z" fill="#000000" fill-rule="evenodd" fill-opacity="1" /><path clip-path="url(#clip180)" d="M659.352 323.948 L659.352 339.596 L655.092 339.596 L655.092 324.087 Q655.092 320.406 653.657 318.577 Q652.222 316.749 649.352 316.749 Q645.903 316.749 643.912 318.948 Q641.921 321.147 641.921 324.943 L641.921 339.596 L637.639 339.596 L637.639 313.67 L641.921 313.67 L641.921 317.698 Q643.449 315.36 645.509 314.202 Q647.593 313.045 650.301 313.045 Q654.768 313.045 657.06 315.823 Q659.352 318.577 659.352 323.948 Z" fill="#000000" fill-rule="evenodd" fill-opacity="1" /><path clip-path="url(#clip180)" d="M686.504 314.665 L686.504 318.647 Q684.699 317.651 682.87 317.165 Q681.065 316.656 679.213 316.656 Q675.069 316.656 672.778 319.295 Q670.486 321.911 670.486 326.656 Q670.486 331.401 672.778 334.04 Q675.069 336.656 679.213 336.656 Q681.065 336.656 682.87 336.17 Q684.699 335.661 686.504 334.665 L686.504 338.6 Q684.722 339.434 682.801 339.85 Q680.903 340.267 678.75 340.267 Q672.893 340.267 669.444 336.586 Q665.995 332.906 665.995 326.656 Q665.995 320.313 669.467 316.679 Q672.963 313.045 679.028 313.045 Q680.995 313.045 682.87 313.462 Q684.745 313.855 686.504 314.665 Z" fill="#000000" fill-rule="evenodd" fill-opacity="1" /><path clip-path="url(#clip180)" d="M698.125 306.309 L698.125 313.67 L706.898 313.67 L706.898 316.98 L698.125 316.98 L698.125 331.054 Q698.125 334.225 698.981 335.128 Q699.861 336.031 702.523 336.031 L706.898 336.031 L706.898 339.596 L702.523 339.596 Q697.592 339.596 695.717 337.767 Q693.842 335.915 693.842 331.054 L693.842 316.98 L690.717 316.98 L690.717 313.67 L693.842 313.67 L693.842 306.309 L698.125 306.309 Z" fill="#000000" fill-rule="evenodd" fill-opacity="1" /><path clip-path="url(#clip180)" d="M712.5 313.67 L716.759 313.67 L716.759 339.596 L712.5 339.596 L712.5 313.67 M712.5 303.577 L716.759 303.577 L716.759 308.971 L712.5 308.971 L712.5 303.577 Z" fill="#000000" fill-rule="evenodd" fill-opacity="1" /><path clip-path="url(#clip180)" d="M735.717 316.656 Q732.291 316.656 730.3 319.341 Q728.31 322.003 728.31 326.656 Q728.31 331.309 730.277 333.994 Q732.268 336.656 735.717 336.656 Q739.12 336.656 741.111 333.971 Q743.101 331.286 743.101 326.656 Q743.101 322.05 741.111 319.364 Q739.12 316.656 735.717 316.656 M735.717 313.045 Q741.273 313.045 744.444 316.656 Q747.615 320.267 747.615 326.656 Q747.615 333.022 744.444 336.656 Q741.273 340.267 735.717 340.267 Q730.138 340.267 726.967 336.656 Q723.819 333.022 723.819 326.656 Q723.819 320.267 726.967 316.656 Q730.138 313.045 735.717 313.045 Z" fill="#000000" fill-rule="evenodd" fill-opacity="1" /><path clip-path="url(#clip180)" d="M776.226 323.948 L776.226 339.596 L771.967 339.596 L771.967 324.087 Q771.967 320.406 770.532 318.577 Q769.096 316.749 766.226 316.749 Q762.777 316.749 760.786 318.948 Q758.796 321.147 758.796 324.943 L758.796 339.596 L754.513 339.596 L754.513 313.67 L758.796 313.67 L758.796 317.698 Q760.323 315.36 762.384 314.202 Q764.467 313.045 767.175 313.045 Q771.643 313.045 773.934 315.823 Q776.226 318.577 776.226 323.948 Z" fill="#000000" fill-rule="evenodd" fill-opacity="1" /></svg>
